<?xml version="1.0" encoding="UTF-8"?>
<!DOCTYPE svg PUBLIC "-//W3C//DTD SVG 1.1//EN" "http://www.w3.org/Graphics/SVG/1.1/DTD/svg11.dtd">
<!-- Creator: CorelDRAW 2017 -->
<svg xmlns="http://www.w3.org/2000/svg" xml:space="preserve" width="500px" height="500px" version="1.1" style="shape-rendering:geometricPrecision; text-rendering:geometricPrecision; image-rendering:optimizeQuality; fill-rule:evenodd; clip-rule:evenodd"
viewBox="0 0 500 500"
 xmlns:xlink="http://www.w3.org/1999/xlink">
 <defs>
  <style type="text/css">
   <![CDATA[
    .str0 {stroke:#F16136;stroke-width:2.36;stroke-miterlimit:22.9256}
    .fil5 {fill:none}
    .fil1 {fill:#FEFEFE}
    .fil0 {fill:#F16136}
    .fil2 {fill:#80CCEC}
    .fil4 {fill:#2AB6EA}
    .fil3 {fill:#00ACE6}
   ]]>
  </style>
    <clipPath id="id0">
     <path d="M160.37 409.48c-1.85,-1.2 -3.63,-2.49 -5.31,-3.89 -13.06,-10.89 -25.22,-22.96 -37.19,-35.13 -18.81,-19.1 -40.36,-33.18 -66.14,-40.5 -9.13,-2.59 -18.23,-5.57 -26.95,-9.33 -8.57,-3.69 -10.65,-9.74 -8.36,-18.89 2.44,-9.79 8.41,-16.3 18.08,-17.86 7.39,-1.2 15.25,-1.78 22.56,-0.55 27.84,4.68 53.69,15.28 78.42,28.93 6.47,3.57 13.02,7.16 19.91,9.69 0.6,0.22 1.29,0.34 2.02,0.38 -0.51,9.04 -0.78,18.16 -0.78,27.36 0,20.33 1.28,40.29 3.74,59.79zm8.37 -166.38c-3.56,-18.23 -7.34,-36.42 -11.17,-54.59 -6.81,-32.35 -14.45,-64.53 -20.81,-96.96 -1.86,-9.49 -1.08,-19.63 -0.59,-29.41 0.29,-5.68 3.29,-10.84 9.44,-12.19 6.4,-1.39 11.59,1.4 14.94,6.9 2.75,4.51 5.42,9.22 7.09,14.2 9.91,29.61 19.52,59.32 29.3,88.96 -11.89,26.06 -21.41,53.89 -28.2,83.09zm50.77 -125.81c-0.32,-4.45 -0.6,-8.9 -0.84,-13.35 -1.32,-24.87 -2.51,-49.77 -2.87,-74.67 -0.1,-6.62 2.36,-13.55 4.85,-19.86 2.35,-5.94 7.74,-8.53 14.22,-8.41 6.17,0.12 9.84,3.93 11.81,9.08 2.22,5.84 4.17,11.97 4.98,18.13 1.7,12.95 2.75,25.98 3.92,39 -13.15,15.44 -25.23,32.19 -36.07,50.08z"/>
    </clipPath>
    <clipPath id="id1">
     <path d="M312.81 415.2c-0.79,-4.89 -1.52,-9.78 -2.23,-14.68 -0.26,-1.85 0.32,-4.81 1.6,-5.73 5.61,-4.03 9.6,-9.25 13,-14.94 -3.7,12.12 -7.82,23.93 -12.37,35.35zm23.83 -80.87c-7.64,5.57 -14.92,11.68 -22.29,17.62 -4.8,3.87 -8.76,3.87 -11.33,-1.66 -2.4,-5.18 -4.24,-10.99 -4.67,-16.65 -1.35,-17.8 -1.66,-35.68 -2.88,-53.49 -0.64,-9.22 -2.08,-18.42 -3.76,-27.51 -0.34,-1.89 -3.72,-4.88 -5,-4.56 -2.27,0.57 -4.5,2.99 -5.82,5.19 -1.12,1.87 -1.15,4.51 -1.27,6.84 -0.72,13.6 -1.2,27.22 -2.01,40.82 -0.33,5.41 -1.13,10.8 -2.05,16.14 -0.18,1.02 -1.96,1.77 -3,2.64 -0.75,-0.92 -1.73,-1.75 -2.2,-2.8 -0.5,-1.14 -0.5,-2.49 -0.73,-3.75 -3.42,-18.65 -6.68,-37.34 -10.37,-55.94 -0.98,-4.93 -2.7,-9.92 -5.18,-14.24 -1.32,-2.3 -5.04,-4.46 -7.62,-4.38 -1.6,0.05 -4.48,4.45 -4.36,6.77 0.39,7.76 1.69,15.51 2.99,23.2 2.66,15.8 5.65,31.54 8.22,47.35 0.36,2.22 -0.91,4.71 -1.42,7.07 -0.58,-0.04 -1.16,-0.07 -1.73,-0.11 -0.62,-1.25 -1.32,-2.46 -1.85,-3.75 -5.66,-13.97 -11.33,-27.93 -16.94,-41.92 -2.16,-5.39 -4.01,-10.92 -6.36,-16.23 -1.45,-3.29 -3.83,-5.98 -8.08,-4.66 -4.15,1.3 -4.72,4.65 -4.22,8.36 0.26,1.99 0.5,4.04 1.17,5.9 6.21,17.06 12.56,34.08 18.75,51.15 0.73,2.03 0.75,4.33 1.11,6.5 -2.37,-0.85 -5.28,-1.12 -6.99,-2.69 -3.33,-3.04 -6.06,-6.76 -8.92,-10.3 -5.73,-7.07 -11.18,-14.38 -17.18,-21.2 -1.42,-1.62 -4.59,-1.71 -6.95,-2.5 -0.79,2.53 -1.75,5.03 -2.27,7.61 -0.19,0.89 0.57,2.09 1.13,3 4.25,6.97 8.82,13.76 12.79,20.88 5.45,9.78 11.28,19.49 15.38,29.85 2.97,7.49 3.02,16.09 5.05,24.02 2.69,10.45 6.37,20.43 14.99,27.93 2.33,2.03 3.96,5.78 4.4,8.94 2.59,18.67 5.07,37.35 7.52,56.03l-61.81 0 -0.03 -0.61c-0.54,-13.59 -2.15,-27.14 -3.45,-40.69 -0.47,-4.85 -2.99,-7.52 -7.89,-9.55 -6.52,-2.69 -13.21,-5.63 -19.14,-9.47 -2.46,-19.5 -3.74,-39.46 -3.74,-59.79 0,-9.2 0.27,-18.32 0.78,-27.36 2.55,0.14 5.64,-0.73 7.43,-2.15 3.19,-2.52 5.83,-6.39 7.44,-10.23 5.37,-12.73 4.01,-26.16 1.67,-39.15 -1.66,-9.25 -3.41,-18.48 -5.21,-27.7 6.79,-29.2 16.31,-57.04 28.2,-83.1l2.27 6.88c4.08,12.31 8.1,24.66 12.98,36.65 1.65,4.07 5.44,7.57 8.98,10.4 3.04,2.43 6.09,1.19 6.47,-3.24 0.29,-3.32 0.42,-6.71 0.08,-10.02 -1.65,-16.1 -3.68,-32.17 -5.21,-48.28 -1.11,-11.69 -2.17,-23.39 -3,-35.1 10.85,-17.9 22.92,-34.65 36.06,-50.1l0.21 2.28c1.85,20.46 3.58,40.94 5.39,61.41 1.58,17.91 2.83,35.85 4.98,53.69 0.79,6.5 3.41,12.87 5.91,19 0.76,1.85 3.92,2.68 5.98,3.97 1.07,-1.96 2.86,-3.85 3.07,-5.9 1,-9.43 1.43,-18.91 2.31,-28.35 1.29,-13.75 2.64,-27.51 4.24,-41.23 2.39,-20.56 4.97,-41.11 7.57,-61.64 1.44,-11.33 2.42,-22.78 4.84,-33.9 0.82,-3.78 2.32,-6.56 4.4,-8.47 9.38,20.57 17.38,42.5 23.81,65.54 -0.57,8.31 -1.13,16.62 -1.6,24.94 -0.53,9.28 0.24,18.67 -0.76,27.87 -1.9,17.63 -4.82,35.15 -6.85,52.77 -0.35,3.03 1.61,6.34 2.51,9.52 3.32,-1.08 7.48,-1.25 9.77,-3.44 3.44,-3.28 6.2,-7.7 8.15,-12.13 1.66,-3.76 3.31,-7.52 4.95,-11.29 1.51,16.22 2.3,32.77 2.3,49.57 0,35.69 -3.52,70.22 -10.11,102.93z"/>
    </clipPath>
 </defs>
 <g id="Camada_x0020_1">
  <metadata id="CorelCorpID_0Corel-Layer"/>
  <ellipse class="fil0 str0" cx="250.05" cy="247.69" rx="248.95" ry="247.69"/>
  <polygon class="fil1" points="193.09,232.95 365,232.95 372.16,333 323,469.8 252.69,469.8 193.09,365 180,321 "/>
  <g id="_773318752">
   <path class="fil2" d="M312.81 415.2c4.54,-11.42 8.67,-23.22 12.37,-35.35 1.07,-1.8 2.09,-3.65 3.08,-5.52 5.96,-11.26 13.08,-21.49 24.31,-28.21 2.81,-1.68 5.93,-3.1 8.16,-5.38 1.92,-1.97 4.42,-5.66 3.71,-7.38 -1.19,-2.88 -4.69,-6.66 -7.27,-6.71 -4.97,-0.08 -10.78,0.99 -14.83,3.7 -1.93,1.29 -3.82,2.62 -5.7,3.99 6.58,-32.72 10.11,-67.25 10.11,-102.94 0,-16.8 -0.78,-33.35 -2.3,-49.57 8.25,-18.94 16.31,-37.97 24.45,-56.97 3.48,-8.13 6.51,-16.49 10.51,-24.34 3.11,-6.12 8.53,-8.04 14.24,-6.54 5.64,1.49 9.09,5.83 8.98,12.9 -0.11,7.07 -0.06,14.43 -1.95,21.12 -5.16,18.34 -11.47,36.35 -17.02,54.59 -8.75,28.71 -18.39,56.93 -14.08,88.25 3.03,22 2.57,44.57 2.58,66.89 0.01,20.4 -4.38,39.83 -15.95,57.26 -3.23,4.86 -5.85,11.2 -5.98,16.93 -0.44,19.28 0.25,38.58 0.48,57.88l-27.71 0c-2.47,-12.64 -4.92,-25.29 -7.3,-37.95 -1.04,-5.54 -1.99,-11.09 -2.89,-16.65zm15.47 -321.61c-6.43,-23.04 -14.43,-44.97 -23.81,-65.54 2.7,-2.48 6.37,-3.49 10.75,-3.34 7.04,0.24 12.19,4.51 13.72,12.89 1.23,6.74 1.85,13.75 1.53,20.58 -0.57,11.81 -1.38,23.61 -2.19,35.41z"/>
   <g>
    <path class="fil3" d="M255.58 67.21c-6.12,7.19 -12.02,14.66 -17.66,22.4 5.64,-7.75 11.53,-15.22 17.65,-22.42l0.01 0.02zm-17.77 22.55c-3.19,4.38 -6.3,8.86 -9.33,13.41 3.03,-4.55 6.14,-9.03 9.33,-13.41zm-9.4 13.51c-0.97,1.46 -1.93,2.93 -2.88,4.4 0.95,-1.48 1.91,-2.94 2.88,-4.4zm-3.2 4.89c-0.88,1.37 -1.75,2.75 -2.62,4.13 0.87,-1.38 1.74,-2.76 2.62,-4.13zm-2.91 4.58c-0.89,1.44 -1.78,2.88 -2.66,4.32 0.88,-1.45 1.77,-2.88 2.66,-4.32zm-25.36 47.27l-0.74 1.63 0.74 -1.64 0 0.01zm-1.28 2.83c-0.6,1.34 -1.19,2.68 -1.78,4.02 0.59,-1.34 1.18,-2.68 1.78,-4.02zm-2.42 5.51c-0.54,1.25 -1.08,2.51 -1.61,3.77 0.53,-1.26 1.07,-2.51 1.61,-3.77zm-36.46 169.31c-0.04,1.72 -0.08,3.43 -0.1,5.15 0.02,-1.72 0.06,-3.43 0.1,-5.15zm-0.11 5.75c-0.02,2.09 -0.04,4.18 -0.04,6.28 0,-2.1 0.02,-4.19 0.04,-6.28z"/>
    <g>
     <path class="fil2" d="M313.02 414.67c0.63,-1.6 1.26,-3.2 1.87,-4.81 -0.61,1.61 -1.23,3.21 -1.87,4.81zm2.1 -5.39c0.62,-1.63 1.23,-3.26 1.83,-4.9 -0.6,1.64 -1.21,3.27 -1.83,4.9zm2.03 -5.44c0.54,-1.46 1.06,-2.93 1.58,-4.4 -0.52,1.47 -1.04,2.94 -1.58,4.4zm2.12 -5.93l1.38 -4c-0.45,1.34 -0.91,2.67 -1.38,4zm17.37 -63.57c0.41,-2.05 0.81,-4.1 1.2,-6.16 -0.39,2.06 -0.79,4.11 -1.2,6.15l0 0.01zm1.27 -6.51c0.36,-1.95 0.72,-3.89 1.06,-5.85 -0.34,1.96 -0.7,3.9 -1.06,5.85zm1.1 -6.12c0.71,-4.05 1.37,-8.13 1.99,-12.24 -0.62,4.11 -1.28,8.19 -1.99,12.24zm2.05 -12.65c1.54,-10.36 2.78,-20.88 3.7,-31.54 -0.92,10.66 -2.16,21.18 -3.7,31.54zm4.23 -38.15c0.32,-4.3 0.59,-8.63 0.8,-12.97 -0.21,4.34 -0.48,8.67 -0.8,12.97zm1.46 -39.51c0,2.23 -0.02,4.44 -0.05,6.66l0.05 -6.66zm-0.05 6.68c-0.02,2.21 -0.06,4.41 -0.12,6.61l0.12 -6.61zm-0.12 6.65c-0.05,2.19 -0.12,4.38 -0.2,6.56l0.2 -6.56zm-0.2 6.62c-0.08,2.18 -0.18,4.34 -0.28,6.51l0.28 -6.51zm-1.1 19.68c-0.15,2.12 -0.32,4.24 -0.51,6.35l0.51 -6.35z"/>
    </g>
    <path class="fil4" d="M304.47 28.05l0.44 0.97 0.44 0.96 0.43 0.97 0.43 0.97 0.43 0.97 0.86 1.96 0.42 0.98 0.43 0.98 0.41 0.98 0.84 1.97 0.41 0.99 0.42 0.99 0.41 0.99 0.4 1 0.41 0.99 0.4 1 0.4 1 0.4 1 0.4 1.01 0.4 1 0.78 2.02 0.39 1.01 0.01 0.03 0.76 2 0.38 1.02 0.76 2.04 0.38 1.02 0.37 1.02 0.03 0.08 0.34 0.95 0.37 1.03 0.37 1.03 0.36 1.03 0.37 1.03 0.65 1.87 0.07 0.2 0.35 1.04 0.33 0.96 0.03 0.08 0.35 1.04 0.35 1.05 0.69 2.09 0.35 1.05 0.59 1.84 0.09 0.26 0.33 1.06 0.67 2.11 0.33 1.06 0.33 1.06 0.32 1.06 0.33 1.07 0.32 1.06 0.31 1.07 0.32 1.07 0.31 1.07 0.32 1.07 0.31 1.08 0.3 1.07 0.31 1.08 0.3 1.08c-0.57,8.31 -1.13,16.62 -1.6,24.94 -0.53,9.28 0.24,18.67 -0.76,27.87 -1.9,17.63 -4.82,35.15 -6.85,52.77 -0.35,3.03 1.61,6.34 2.51,9.52 3.32,-1.08 7.48,-1.25 9.77,-3.44 3.44,-3.28 6.2,-7.7 8.15,-12.13 1.66,-3.76 3.31,-7.52 4.95,-11.29l0.07 0.76 0.07 0.76 0.07 0.76 0.07 0.76 0 0.05 0.06 0.72 0.07 0.76 0.06 0.76 0.06 0.77 0.06 0.76 0.07 0.77 0.06 0.76 0.05 0.77 0.06 0.76 0.02 0.22 0.04 0.55 0.05 0.77 0.06 0.77 0.05 0.76 0.05 0.69 0 0.08 0.05 0.77 0.15 2.31 0.02 0.39 0.03 0.38 0.13 2.32 0.04 0.77 0.01 0.09 0.03 0.68 0.04 0.78 0.08 1.54 0.03 0.56 0.01 0.22 0.03 0.77 0.04 0.78 0.03 0.77 0.03 0.78 0.01 0.26 0.02 0.52 0.03 0.77 0.03 0.78 0.05 1.51 0.01 0.05 0.02 0.78 0.03 0.78 0.02 0.77 0.02 0.79 0.01 0.43 0.01 0.35 0.02 0.78 0.02 0.78 0.02 0.78 0.01 0.78 0.01 0.13 0.01 0.65 0.04 2.35 0.01 0.61 0 0.18 0.01 0.78 0.01 0.79 0.01 1.57 0.01 0.3 0 0.48 0.01 3.15c0,2.23 -0.02,4.45 -0.05,6.66l0 0.02c-0.02,2.21 -0.06,4.42 -0.12,6.61l0 0.04c-0.05,2.17 -0.12,4.35 -0.2,6.51l0 0.06 0 0.05c-0.08,2.18 -0.18,4.35 -0.28,6.52l-0.01 0.07c-0.1,2.16 -0.22,4.32 -0.36,6.47l0 0.09c-0.13,2.15 -0.28,4.29 -0.44,6.42l-0.01 0.11c-0.15,2.13 -0.32,4.25 -0.51,6.37l-0.01 0.12c-0.55,6.42 -1.22,12.79 -2.01,19.11l-0.02 0.17c-0.52,4.18 -1.09,8.34 -1.7,12.47l-0.03 0.2c-0.62,4.12 -1.28,8.21 -1.99,12.28l0 0 -0.04 0.23c-0.34,1.92 -0.69,3.83 -1.04,5.74l-0.04 0.21 -0.05 0.25c-0.36,1.88 -0.72,3.76 -1.09,5.63l-0.06 0.27 -0.05 0.25c-7.64,5.57 -14.92,11.68 -22.29,17.62 -4.8,3.87 -8.76,3.87 -11.33,-1.66 -2.4,-5.18 -4.24,-10.99 -4.67,-16.65 -1.35,-17.8 -1.66,-35.68 -2.88,-53.49 -0.64,-9.22 -2.08,-18.42 -3.76,-27.51 -0.34,-1.89 -3.72,-4.88 -5,-4.56 -2.27,0.57 -4.5,2.99 -5.82,5.19 -1.12,1.87 -1.15,4.51 -1.27,6.84 -0.72,13.6 -1.2,27.22 -2.01,40.82 -0.33,5.41 -1.13,10.8 -2.05,16.14 -0.18,1.02 -1.96,1.77 -3,2.64 -0.75,-0.92 -1.73,-1.75 -2.2,-2.8 -0.5,-1.14 -0.5,-2.49 -0.73,-3.75 -3.42,-18.65 -6.68,-37.34 -10.37,-55.94 -0.98,-4.93 -2.7,-9.92 -5.18,-14.24 -1.32,-2.3 -5.04,-4.46 -7.62,-4.38 -1.6,0.05 -4.48,4.45 -4.36,6.77 0.39,7.76 1.69,15.51 2.99,23.2 2.66,15.8 5.65,31.54 8.22,47.35 0.36,2.22 -0.91,4.71 -1.42,7.07 -0.58,-0.04 -1.16,-0.07 -1.73,-0.11 -0.62,-1.25 -1.32,-2.46 -1.85,-3.75 -5.66,-13.97 -11.33,-27.93 -16.94,-41.92 -2.16,-5.39 -4.01,-10.92 -6.36,-16.23 -1.45,-3.29 -3.83,-5.98 -8.08,-4.66 -4.15,1.3 -4.72,4.65 -4.22,8.36 0.26,1.99 0.5,4.04 1.17,5.9 6.21,17.06 12.56,34.08 18.75,51.15 0.73,2.03 0.75,4.33 1.11,6.5 -2.37,-0.85 -5.28,-1.12 -6.99,-2.69 -3.33,-3.04 -6.06,-6.76 -8.92,-10.3 -5.73,-7.07 -11.18,-14.38 -17.18,-21.2 -1.42,-1.62 -4.59,-1.71 -6.95,-2.5 -0.79,2.53 -1.75,5.03 -2.27,7.61 -0.19,0.89 0.57,2.09 1.13,3 4.25,6.97 8.82,13.76 12.79,20.88 5.45,9.78 11.28,19.49 15.38,29.85 2.97,7.49 3.02,16.09 5.05,24.02 2.69,10.45 6.37,20.43 14.99,27.93 2.33,2.03 3.96,5.78 4.4,8.94 2.59,18.67 5.07,37.35 7.52,56.03l-61.81 0 -0.03 -0.61c-0.54,-13.59 -2.15,-27.14 -3.45,-40.69 -0.47,-4.85 -2.99,-7.52 -7.89,-9.55 -6.52,-2.69 -13.21,-5.63 -19.14,-9.47l-0.11 -0.92 -0.12 -0.91 -0.06 -0.51 -0.04 -0.41 -0.12 -0.91 -0.1 -0.92 -0.11 -0.92 -0.1 -0.92 -0.11 -0.92 -0.1 -0.91 -0.19 -1.85 -0.1 -0.92 -0.09 -0.92 -0.09 -0.92 -0.01 -0.08 -0.08 -0.85 -0.2 -2.06 -0.06 -0.71 -0.09 -0.93 -0.08 -0.92 -0.08 -0.93 -0.12 -1.48 -0.03 -0.38 -0.07 -0.93 -0.08 -0.93 -0.04 -0.56 -0.03 -0.37 -0.07 -0.93 -0.06 -0.93 -0.07 -0.93 -0.03 -0.41 -0.03 -0.53 -0.06 -0.93 -0.06 -0.94 -0.06 -0.93 -0.02 -0.26 -0.04 -0.68 -0.05 -0.93 -0.05 -0.94 -0.05 -0.94 -0.01 -0.11 -0.04 -0.82 -0.14 -2.78 0 -0.04 -0.14 -3.45 -0.01 -0.13 0 -0.19 -0.07 -1.88 -0.03 -0.94 -0.02 -0.61 -0.01 -0.34 -0.03 -0.94 -0.05 -1.9 -0.01 -0.45 -0.01 -0.49 -0.05 -2.85 0 -0.3 -0.01 -0.64 -0.03 -1.9 0 -0.95 -0.01 -0.15 0 -0.8 -0.01 -2.86c0,-2.01 0.01,-4.02 0.04,-6.02l0 -0.36 0 -0.07 0.01 -0.43c0.02,-1.72 0.06,-3.43 0.1,-5.15l0.01 -0.42 0.01 -0.43 0.02 -0.43 0.01 -0.43c0.03,-1.28 0.08,-2.56 0.12,-3.84l0.02 -0.42 0.09 -2.14 0.01 -0.42 0.02 -0.43 0.02 -0.42 0.02 -0.43 0.02 -0.42 0.02 -0.43 0.02 -0.42 0.02 -0.43 0.02 -0.42 0.14 -2.55 0.02 -0.42 0.02 -0.43c2.55,0.14 5.64,-0.73 7.43,-2.15 3.19,-2.52 5.83,-6.39 7.44,-10.23 5.37,-12.73 4.01,-26.16 1.67,-39.15 -1.66,-9.25 -3.41,-18.48 -5.21,-27.7l0.32 -1.37 0.03 -0.1 0.96 -3.99 0.33 -1.36 0.34 -1.36 0.7 -2.71 0.35 -1.35 0.36 -1.35c0.34,-1.3 0.69,-2.61 1.05,-3.91l0.04 -0.12 0.37 -1.35 0.04 -0.15 1.1 -3.86 0.38 -1.33 0.39 -1.33 0.8 -2.65 0.4 -1.33 0.41 -1.32 1.23 -3.92 0.01 -0.03 0.42 -1.31 0.05 -0.16 1.23 -3.77 0.44 -1.3 0.44 -1.3 1.26 -3.66 0.08 -0.23 0.46 -1.29 0.03 -0.09 0.89 -2.49 0.46 -1.28 0.47 -1.28 0.14 -0.36 1.14 -3.07 0.15 -0.41 0.49 -1.27 0.18 -0.46c0.43,-1.12 0.85,-2.24 1.29,-3.35l0.5 -1.26 0.5 -1.26 1.2 -2.95 0.91 -2.22 0.98 -2.34 0.53 -1.24 0.53 -1.24 0.54 -1.24 1 -2.28 1.19 -2.68 1.05 -2.32 0.04 -0.1 2.27 6.88c4.08,12.31 8.1,24.66 12.98,36.65 1.65,4.07 5.44,7.57 8.98,10.4 3.04,2.43 6.09,1.19 6.47,-3.24 0.29,-3.32 0.42,-6.71 0.08,-10.02 -1.65,-16.1 -3.68,-32.17 -5.21,-48.28 -1.11,-11.69 -2.17,-23.39 -3,-35.1l0.01 -0.03 1.45 -2.36 0.07 -0.12 0.52 -0.83 0.92 -1.49 1.15 -1.83 0.53 -0.82 1.05 -1.65 0.53 -0.82 1.29 -1.97 0.84 -1.29 0.54 -0.81 0.12 -0.18 1.42 -2.13 1.83 -2.67 1.16 -1.69 2.1 -2.98 1.17 -1.65c0.7,-0.97 1.41,-1.95 2.11,-2.92l0.97 -1.31 2.23 -2.99 1.18 -1.56 2.14 -2.79 1.04 -1.33c0.8,-1.03 1.61,-2.05 2.43,-3.07l0.99 -1.24c0.83,-1.03 1.68,-2.06 2.52,-3.09l0.99 -1.19c0.92,-1.11 1.84,-2.2 2.76,-3.29l0.21 2.28c1.85,20.46 3.58,40.94 5.39,61.41 1.58,17.91 2.83,35.85 4.98,53.69 0.79,6.5 3.41,12.87 5.91,19 0.76,1.85 3.92,2.68 5.98,3.97 1.07,-1.96 2.86,-3.85 3.07,-5.9 1,-9.43 1.43,-18.91 2.31,-28.35 1.29,-13.75 2.64,-27.51 4.24,-41.23 2.39,-20.56 4.97,-41.11 7.57,-61.64 1.44,-11.33 2.42,-22.78 4.84,-33.9 0.82,-3.78 2.32,-6.56 4.4,-8.47zm20.71 351.8l-0.18 0.57 -0.88 2.83 -0.17 0.57 -0.18 0.56 -0.18 0.56 -0.18 0.57 -0.18 0.56 -0.72 2.25 -0.19 0.56 -0.73 2.24 -0.19 0.56 -0.19 0.56 -0.54 1.61c-0.49,1.44 -0.98,2.87 -1.49,4.3l-0.25 0.73 0 0.01 -0.2 0.55c-0.52,1.47 -1.05,2.94 -1.58,4.4l-0.14 0.37 -0.06 0.17 -0.01 0.01c-0.64,1.75 -1.29,3.48 -1.95,5.21l-0.04 0.12 -0.04 0.1 -0.02 0.05c-0.67,1.76 -1.35,3.51 -2.04,5.25l-0.03 0.07 -0.01 0.01c-0.79,-4.89 -1.52,-9.78 -2.23,-14.68 -0.26,-1.85 0.32,-4.81 1.6,-5.73 5.61,-4.03 9.6,-9.25 13,-14.94z"/>
   </g>
   <g>
   </g>
   <g style="clip-path:url(#id0)">
    <g>
     <ellipse class="fil3" cx="78.12" cy="233.23" rx="267.38" ry="376.72"/>
     <ellipse class="fil2" cx="485.69" cy="350.61" rx="328.43" ry="394.91"/>
     <path class="fil4" d="M301.67 22.03c28.47,59.88 45.08,131.89 45.08,209.37 0,142.38 -56.07,266.3 -138.79,330.36 -32.49,-61.27 -51.33,-134.02 -51.33,-212.07 0,-136.44 57.54,-256.71 145.04,-327.66z"/>
    </g>
   </g>
   <path class="fil5" d="M160.37 409.48c-1.85,-1.2 -3.63,-2.49 -5.31,-3.89 -13.06,-10.89 -25.22,-22.96 -37.19,-35.13 -18.81,-19.1 -40.36,-33.18 -66.14,-40.5 -9.13,-2.59 -18.23,-5.57 -26.95,-9.33 -8.57,-3.69 -10.65,-9.74 -8.36,-18.89 2.44,-9.79 8.41,-16.3 18.08,-17.86 7.39,-1.2 15.25,-1.78 22.56,-0.55 27.84,4.68 53.69,15.28 78.42,28.93 6.47,3.57 13.02,7.16 19.91,9.69 0.6,0.22 1.29,0.34 2.02,0.38 -0.51,9.04 -0.78,18.16 -0.78,27.36 0,20.33 1.28,40.29 3.74,59.79zm8.37 -166.38c-3.56,-18.23 -7.34,-36.42 -11.17,-54.59 -6.81,-32.35 -14.45,-64.53 -20.81,-96.96 -1.86,-9.49 -1.08,-19.63 -0.59,-29.41 0.29,-5.68 3.29,-10.84 9.44,-12.19 6.4,-1.39 11.59,1.4 14.94,6.9 2.75,4.51 5.42,9.22 7.09,14.2 9.91,29.61 19.52,59.32 29.3,88.96 -11.89,26.06 -21.41,53.89 -28.2,83.09zm50.77 -125.81c-0.32,-4.45 -0.6,-8.9 -0.84,-13.35 -1.32,-24.87 -2.51,-49.77 -2.87,-74.67 -0.1,-6.62 2.36,-13.55 4.85,-19.86 2.35,-5.94 7.74,-8.53 14.22,-8.41 6.17,0.12 9.84,3.93 11.81,9.08 2.22,5.84 4.17,11.97 4.98,18.13 1.7,12.95 2.75,25.98 3.92,39 -13.15,15.44 -25.23,32.19 -36.07,50.08z"/>
   <g>
   </g>
   <g style="clip-path:url(#id1)">
    <g>
     <ellipse class="fil3" cx="78.12" cy="233.23" rx="267.38" ry="376.72"/>
     <ellipse class="fil2" cx="485.69" cy="350.61" rx="328.43" ry="394.91"/>
     <path class="fil4" d="M301.67 22.03c28.47,59.88 45.08,131.89 45.08,209.37 0,142.38 -56.07,266.3 -138.79,330.36 -32.49,-61.27 -51.33,-134.02 -51.33,-212.07 0,-136.44 57.54,-256.71 145.04,-327.66z"/>
    </g>
   </g>
   <path class="fil5" d="M312.81 415.2c-0.79,-4.89 -1.52,-9.78 -2.23,-14.68 -0.26,-1.85 0.32,-4.81 1.6,-5.73 5.61,-4.03 9.6,-9.25 13,-14.94 -3.7,12.12 -7.82,23.93 -12.37,35.35zm23.83 -80.87c-7.64,5.57 -14.92,11.68 -22.29,17.62 -4.8,3.87 -8.76,3.87 -11.33,-1.66 -2.4,-5.18 -4.24,-10.99 -4.67,-16.65 -1.35,-17.8 -1.66,-35.68 -2.88,-53.49 -0.64,-9.22 -2.08,-18.42 -3.76,-27.51 -0.34,-1.89 -3.72,-4.88 -5,-4.56 -2.27,0.57 -4.5,2.99 -5.82,5.19 -1.12,1.87 -1.15,4.51 -1.27,6.84 -0.72,13.6 -1.2,27.22 -2.01,40.82 -0.33,5.41 -1.13,10.8 -2.05,16.14 -0.18,1.02 -1.96,1.77 -3,2.64 -0.75,-0.92 -1.73,-1.75 -2.2,-2.8 -0.5,-1.14 -0.5,-2.49 -0.73,-3.75 -3.42,-18.65 -6.68,-37.34 -10.37,-55.94 -0.98,-4.93 -2.7,-9.92 -5.18,-14.24 -1.32,-2.3 -5.04,-4.46 -7.62,-4.38 -1.6,0.05 -4.48,4.45 -4.36,6.77 0.39,7.76 1.69,15.51 2.99,23.2 2.66,15.8 5.65,31.54 8.22,47.35 0.36,2.22 -0.91,4.71 -1.42,7.07 -0.58,-0.04 -1.16,-0.07 -1.73,-0.11 -0.62,-1.25 -1.32,-2.46 -1.85,-3.75 -5.66,-13.97 -11.33,-27.93 -16.94,-41.92 -2.16,-5.39 -4.01,-10.92 -6.36,-16.23 -1.45,-3.29 -3.83,-5.98 -8.08,-4.66 -4.15,1.3 -4.72,4.65 -4.22,8.36 0.26,1.99 0.5,4.04 1.17,5.9 6.21,17.06 12.56,34.08 18.75,51.15 0.73,2.03 0.75,4.33 1.11,6.5 -2.37,-0.85 -5.28,-1.12 -6.99,-2.69 -3.33,-3.04 -6.06,-6.76 -8.92,-10.3 -5.73,-7.07 -11.18,-14.38 -17.18,-21.2 -1.42,-1.62 -4.59,-1.71 -6.95,-2.5 -0.79,2.53 -1.75,5.03 -2.27,7.61 -0.19,0.89 0.57,2.09 1.13,3 4.25,6.97 8.82,13.76 12.79,20.88 5.45,9.78 11.28,19.49 15.38,29.85 2.97,7.49 3.02,16.09 5.05,24.02 2.69,10.45 6.37,20.43 14.99,27.93 2.33,2.03 3.96,5.78 4.4,8.94 2.59,18.67 5.07,37.35 7.52,56.03l-61.81 0 -0.03 -0.61c-0.54,-13.59 -2.15,-27.14 -3.45,-40.69 -0.47,-4.85 -2.99,-7.52 -7.89,-9.55 -6.52,-2.69 -13.21,-5.63 -19.14,-9.47 -2.46,-19.5 -3.74,-39.46 -3.74,-59.79 0,-9.2 0.27,-18.32 0.78,-27.36 2.55,0.14 5.64,-0.73 7.43,-2.15 3.19,-2.52 5.83,-6.39 7.44,-10.23 5.37,-12.73 4.01,-26.16 1.67,-39.15 -1.66,-9.25 -3.41,-18.48 -5.21,-27.7 6.79,-29.2 16.31,-57.04 28.2,-83.1l2.27 6.88c4.08,12.31 8.1,24.66 12.98,36.65 1.65,4.07 5.44,7.57 8.98,10.4 3.04,2.43 6.09,1.19 6.47,-3.24 0.29,-3.32 0.42,-6.71 0.08,-10.02 -1.65,-16.1 -3.68,-32.17 -5.21,-48.28 -1.11,-11.69 -2.17,-23.39 -3,-35.1 10.85,-17.9 22.92,-34.65 36.06,-50.1l0.21 2.28c1.85,20.46 3.58,40.94 5.39,61.41 1.58,17.91 2.83,35.85 4.98,53.69 0.79,6.5 3.41,12.87 5.91,19 0.76,1.85 3.92,2.68 5.98,3.97 1.07,-1.96 2.86,-3.85 3.07,-5.9 1,-9.43 1.43,-18.91 2.31,-28.35 1.29,-13.75 2.64,-27.51 4.24,-41.23 2.39,-20.56 4.97,-41.11 7.57,-61.64 1.44,-11.33 2.42,-22.78 4.84,-33.9 0.82,-3.78 2.32,-6.56 4.4,-8.47 9.38,20.57 17.38,42.5 23.81,65.54 -0.57,8.31 -1.13,16.62 -1.6,24.94 -0.53,9.28 0.24,18.67 -0.76,27.87 -1.9,17.63 -4.82,35.15 -6.85,52.77 -0.35,3.03 1.61,6.34 2.51,9.52 3.32,-1.08 7.48,-1.25 9.77,-3.44 3.44,-3.28 6.2,-7.7 8.15,-12.13 1.66,-3.76 3.31,-7.52 4.95,-11.29 1.51,16.22 2.3,32.77 2.3,49.57 0,35.69 -3.52,70.22 -10.11,102.93z"/>
  </g>
 </g>
</svg>
