<?xml version="1.0" encoding="UTF-8"?>
<!DOCTYPE svg PUBLIC "-//W3C//DTD SVG 1.1//EN" "http://www.w3.org/Graphics/SVG/1.1/DTD/svg11.dtd">
<!-- Creator: CorelDRAW 2017 -->
<svg xmlns="http://www.w3.org/2000/svg" xml:space="preserve" width="500px" height="500px" version="1.1" style="shape-rendering:geometricPrecision; text-rendering:geometricPrecision; image-rendering:optimizeQuality; fill-rule:evenodd; clip-rule:evenodd"
viewBox="0 0 500 500"
 xmlns:xlink="http://www.w3.org/1999/xlink">
 <defs>
  <style type="text/css">
   <![CDATA[
    .fil3 {fill:none}
    .fil5 {fill:#F16136}
    .fil0 {fill:#80CCEC}
    .fil2 {fill:#2AB6EA}
    .fil1 {fill:#00ACE6}
    .fil4 {fill:#F16136;fill-rule:nonzero}
   ]]>
  </style>
    <clipPath id="id0">
     <path d="M173.83 340.76c-1.5,-0.97 -2.95,-2.01 -4.3,-3.15 -10.58,-8.81 -20.42,-18.58 -30.11,-28.43 -15.22,-15.47 -32.68,-26.86 -53.55,-32.79 -7.39,-2.1 -14.75,-4.51 -21.81,-7.55 -6.93,-2.99 -8.62,-7.89 -6.77,-15.3 1.98,-7.92 6.81,-13.19 14.64,-14.45 5.98,-0.97 12.35,-1.44 18.26,-0.45 22.54,3.79 43.47,12.37 63.48,23.42 5.24,2.9 10.55,5.8 16.13,7.85 0.48,0.18 1.04,0.28 1.63,0.31 -0.41,7.32 -0.63,14.7 -0.63,22.14 0,16.46 1.03,32.62 3.03,48.4zm6.77 -134.68c-2.88,-14.76 -5.94,-29.48 -9.04,-44.2 -5.51,-26.18 -11.7,-52.23 -16.85,-78.49 -1.51,-7.68 -0.87,-15.88 -0.47,-23.81 0.23,-4.59 2.66,-8.77 7.64,-9.86 5.18,-1.13 9.38,1.13 12.09,5.59 2.22,3.64 4.39,7.46 5.74,11.49 8.02,23.97 15.8,48.02 23.72,72.02 -9.62,21.09 -17.33,43.62 -22.83,67.26zm41.1 -101.85c-0.26,-3.6 -0.49,-7.2 -0.68,-10.8 -1.07,-20.14 -2.03,-40.3 -2.33,-60.45 -0.08,-5.36 1.92,-10.97 3.93,-16.08 1.9,-4.81 6.27,-6.9 11.52,-6.8 4.99,0.09 7.96,3.17 9.55,7.34 1.8,4.73 3.38,9.69 4.04,14.68 1.37,10.48 2.23,21.03 3.17,31.57 -10.64,12.5 -20.42,26.06 -29.2,40.54z"/>
    </clipPath>
    <clipPath id="id1">
     <path d="M297.23 345.4c-0.64,-3.96 -1.24,-7.92 -1.8,-11.89 -0.22,-1.5 0.25,-3.89 1.29,-4.64 4.54,-3.26 7.77,-7.49 10.52,-12.09 -2.99,9.81 -6.33,19.37 -10.01,28.62zm19.29 -65.47c-6.19,4.51 -12.08,9.46 -18.05,14.27 -3.88,3.12 -7.09,3.12 -9.17,-1.35 -1.94,-4.2 -3.43,-8.9 -3.78,-13.48 -1.09,-14.41 -1.34,-28.88 -2.33,-43.3 -0.51,-7.47 -1.69,-14.91 -3.04,-22.27 -0.28,-1.53 -3.02,-3.95 -4.05,-3.69 -1.84,0.46 -3.65,2.42 -4.71,4.2 -0.91,1.51 -0.93,3.65 -1.03,5.54 -0.58,11.01 -0.98,22.03 -1.63,33.04 -0.26,4.38 -0.91,8.75 -1.66,13.07 -0.14,0.82 -1.58,1.43 -2.42,2.14 -0.61,-0.75 -1.41,-1.42 -1.78,-2.27 -0.41,-0.92 -0.41,-2.02 -0.6,-3.04 -2.77,-15.1 -5.41,-30.22 -8.39,-45.28 -0.79,-3.99 -2.18,-8.03 -4.2,-11.53 -1.07,-1.87 -4.08,-3.61 -6.16,-3.54 -1.3,0.04 -3.63,3.59 -3.54,5.47 0.32,6.29 1.37,12.56 2.42,18.78 2.16,12.79 4.58,25.54 6.66,38.34 0.3,1.8 -0.73,3.81 -1.15,5.72 -0.47,-0.03 -0.93,-0.06 -1.4,-0.09 -0.5,-1.01 -1.07,-1.99 -1.49,-3.04 -4.59,-11.3 -9.17,-22.61 -13.72,-33.93 -1.75,-4.37 -3.25,-8.84 -5.14,-13.14 -1.18,-2.66 -3.1,-4.84 -6.54,-3.77 -3.37,1.05 -3.83,3.76 -3.43,6.77 0.22,1.61 0.41,3.26 0.96,4.77 5.02,13.82 10.16,27.59 15.17,41.41 0.6,1.65 0.61,3.5 0.9,5.26 -1.92,-0.69 -4.27,-0.9 -5.66,-2.17 -2.7,-2.47 -4.91,-5.48 -7.22,-8.34 -4.64,-5.73 -9.05,-11.64 -13.91,-17.17 -1.15,-1.31 -3.71,-1.38 -5.62,-2.02 -0.64,2.05 -1.42,4.07 -1.85,6.16 -0.14,0.72 0.47,1.69 0.92,2.43 3.44,5.64 7.14,11.14 10.36,16.9 4.41,7.92 9.12,15.78 12.45,24.17 2.4,6.06 2.44,13.02 4.09,19.44 2.17,8.46 5.15,16.54 12.13,22.61 1.89,1.65 3.2,4.68 3.56,7.24 2.1,15.11 4.11,30.23 6.09,45.36l-50.04 0 -0.02 -0.5c-0.44,-11 -1.74,-21.97 -2.8,-32.94 -0.38,-3.93 -2.42,-6.09 -6.38,-7.73 -5.28,-2.17 -10.69,-4.56 -15.49,-7.67 -2,-15.78 -3.03,-31.94 -3.03,-48.4 0,-7.44 0.22,-14.82 0.63,-22.14 2.06,0.11 4.57,-0.6 6.01,-1.74 2.59,-2.05 4.72,-5.18 6.03,-8.29 4.34,-10.3 3.24,-21.18 1.35,-31.69 -1.35,-7.48 -2.76,-14.96 -4.22,-22.42 5.5,-23.64 13.2,-46.18 22.83,-67.27l1.84 5.57c3.3,9.96 6.56,19.96 10.5,29.67 1.34,3.29 4.41,6.12 7.27,8.42 2.46,1.96 4.93,0.96 5.24,-2.63 0.24,-2.68 0.34,-5.43 0.07,-8.11 -1.34,-13.04 -2.98,-26.04 -4.22,-39.09 -0.9,-9.46 -1.76,-18.93 -2.43,-28.41 8.78,-14.48 18.55,-28.05 29.19,-40.55l0.17 1.84c1.5,16.57 2.9,33.14 4.37,49.71 1.27,14.5 2.29,29.03 4.03,43.46 0.63,5.27 2.76,10.43 4.78,15.39 0.61,1.49 3.18,2.17 4.84,3.21 0.86,-1.59 2.31,-3.11 2.49,-4.77 0.81,-7.64 1.15,-15.31 1.87,-22.95 1.04,-11.14 2.13,-22.27 3.43,-33.38 1.93,-16.65 4.02,-33.28 6.13,-49.9 1.16,-9.18 1.95,-18.44 3.91,-27.44 0.67,-3.07 1.88,-5.31 3.57,-6.86 7.59,16.65 14.06,34.4 19.27,53.06 -0.46,6.72 -0.92,13.45 -1.3,20.18 -0.42,7.52 0.2,15.12 -0.61,22.57 -1.53,14.27 -3.9,28.45 -5.55,42.71 -0.28,2.46 1.31,5.14 2.04,7.71 2.69,-0.87 6.05,-1.01 7.9,-2.78 2.79,-2.66 5.02,-6.23 6.6,-9.82 1.35,-3.04 2.68,-6.09 4.01,-9.14 1.23,13.13 1.86,26.52 1.86,40.13 0,28.89 -2.85,56.84 -8.18,83.32z"/>
    </clipPath>
 </defs>
 <g id="Camada_x0020_1">
  <metadata id="CorelCorpID_0Corel-Layer"/>
  <g id="_771870800">
   <path class="fil0" d="M297.23 345.4c3.68,-9.25 7.02,-18.8 10.01,-28.62 0.87,-1.46 1.69,-2.96 2.5,-4.47 4.82,-9.12 10.59,-17.39 19.68,-22.83 2.27,-1.36 4.8,-2.52 6.6,-4.36 1.55,-1.6 3.58,-4.59 3,-5.98 -0.96,-2.33 -3.79,-5.39 -5.88,-5.42 -4.03,-0.07 -8.73,0.79 -12.01,2.98 -1.56,1.05 -3.09,2.13 -4.61,3.23 5.33,-26.48 8.18,-54.43 8.18,-83.32 0,-13.61 -0.63,-27 -1.86,-40.13 6.68,-15.34 13.21,-30.74 19.79,-46.12 2.82,-6.58 5.28,-13.35 8.51,-19.71 2.52,-4.95 6.9,-6.51 11.53,-5.29 4.56,1.2 7.36,4.73 7.27,10.44 -0.09,5.72 -0.05,11.69 -1.58,17.1 -4.18,14.85 -9.28,29.43 -13.78,44.19 -7.08,23.24 -14.88,46.09 -11.39,71.44 2.45,17.81 2.07,36.08 2.08,54.15 0.01,16.52 -3.54,32.25 -12.91,46.35 -2.61,3.94 -4.74,9.07 -4.84,13.71 -0.36,15.61 0.2,31.23 0.39,46.86l-22.43 0c-2,-10.24 -3.99,-20.48 -5.91,-30.73 -0.84,-4.48 -1.62,-8.97 -2.34,-13.47zm12.52 -260.35c-5.21,-18.65 -11.68,-36.41 -19.27,-53.06 2.18,-2.01 5.15,-2.83 8.7,-2.71 5.69,0.2 9.87,3.66 11.1,10.44 1,5.46 1.5,11.13 1.24,16.66 -0.45,9.56 -1.11,19.12 -1.77,28.67z"/>
   <g>
    <path class="fil1" d="M250.9 63.69c-4.96,5.82 -9.73,11.87 -14.3,18.13 4.57,-6.27 9.34,-12.32 14.29,-18.14l0.01 0.01zm-14.38 18.25c-2.59,3.56 -5.11,7.18 -7.56,10.86 2.45,-3.68 4.97,-7.3 7.56,-10.86zm-7.62 10.94c-0.78,1.18 -1.56,2.37 -2.33,3.56 0.77,-1.19 1.55,-2.38 2.33,-3.56zm-2.59 3.96c-0.71,1.11 -1.41,2.22 -2.12,3.34 0.71,-1.12 1.41,-2.23 2.12,-3.34zm-2.35 3.71c-0.73,1.16 -1.44,2.33 -2.15,3.5 0.71,-1.17 1.42,-2.34 2.15,-3.5zm-20.53 38.27l-0.6 1.31 0.6 -1.32 0 0.01zm-1.04 2.29c-0.48,1.08 -0.96,2.16 -1.44,3.25 0.48,-1.09 0.96,-2.17 1.44,-3.25zm-1.96 4.46c-0.43,1.01 -0.87,2.03 -1.3,3.05 0.43,-1.02 0.87,-2.04 1.3,-3.05zm-29.51 137.06c-0.03,1.38 -0.06,2.77 -0.08,4.16 0.02,-1.39 0.05,-2.78 0.08,-4.16zm-0.09 4.65c-0.02,1.69 -0.03,3.38 -0.03,5.08 0,-1.7 0.01,-3.39 0.03,-5.08z"/>
    <g>
     <path class="fil0" d="M297.4 344.96c0.51,-1.29 1.02,-2.58 1.52,-3.89 -0.5,1.31 -1.01,2.6 -1.52,3.89zm1.7 -4.36c0.5,-1.32 0.99,-2.63 1.48,-3.96 -0.49,1.33 -0.98,2.65 -1.48,3.96zm1.64 -4.4c0.43,-1.19 0.86,-2.37 1.28,-3.56 -0.42,1.19 -0.85,2.37 -1.28,3.56zm1.72 -4.81l1.11 -3.23c-0.36,1.08 -0.73,2.16 -1.11,3.23zm14.06 -51.46c0.33,-1.65 0.66,-3.31 0.97,-4.98 -0.31,1.67 -0.64,3.33 -0.97,4.98l0 0zm1.02 -5.26c0.3,-1.58 0.59,-3.15 0.86,-4.74 -0.27,1.59 -0.56,3.16 -0.86,4.74zm0.9 -4.95c0.57,-3.29 1.11,-6.59 1.61,-9.92 -0.5,3.33 -1.04,6.63 -1.61,9.92zm1.66 -10.25c1.24,-8.39 2.25,-16.9 3,-25.53 -0.75,8.63 -1.76,17.14 -3,25.53zm3.42 -30.88c0.26,-3.48 0.48,-6.98 0.65,-10.5 -0.17,3.52 -0.39,7.02 -0.65,10.5zm1.18 -31.98c0,1.8 -0.01,3.59 -0.03,5.39l0.03 -5.39zm-0.03 5.4c-0.03,1.79 -0.06,3.57 -0.1,5.35l0.1 -5.35zm-0.1 5.39c-0.05,1.77 -0.1,3.54 -0.17,5.31l0.17 -5.31zm-0.17 5.36c-0.06,1.76 -0.14,3.51 -0.23,5.27l0.23 -5.27zm-0.88 15.93c-0.13,1.72 -0.27,3.43 -0.42,5.14l0.42 -5.14z"/>
    </g>
    <path class="fil2" d="M290.48 31.99l0.35 0.78 0.36 0.79 0.35 0.78 0.35 0.78 0.35 0.79 0.69 1.58 0.34 0.8 0.34 0.79 0.34 0.8 0.68 1.59 0.33 0.8 0.34 0.8 0.33 0.81 0.33 0.8 0.33 0.81 0.33 0.81 0.32 0.81 0.32 0.81 0.32 0.81 0.32 0.81 0.64 1.64 0.31 0.82 0.01 0.02 0.62 1.62 0.31 0.82 0.61 1.65 0.3 0.83 0.31 0.83 0.02 0.06 0.28 0.77 0.3 0.83 0.3 0.83 0.29 0.84 0.3 0.83 0.52 1.52 0.06 0.16 0.29 0.84 0.26 0.78 0.02 0.06 0.29 0.85 0.28 0.84 0.56 1.7 0.28 0.85 0.48 1.49 0.07 0.21 0.27 0.85 0.54 1.71 0.27 0.86 0.27 0.86 0.26 0.86 0.26 0.86 0.26 0.86 0.26 0.87 0.25 0.87 0.26 0.86 0.25 0.87 0.25 0.87 0.25 0.87 0.25 0.87 0.24 0.88c-0.46,6.72 -0.92,13.45 -1.3,20.18 -0.42,7.52 0.2,15.12 -0.61,22.57 -1.53,14.27 -3.9,28.45 -5.55,42.71 -0.28,2.46 1.31,5.14 2.04,7.71 2.69,-0.87 6.05,-1.01 7.9,-2.78 2.79,-2.66 5.02,-6.23 6.6,-9.82 1.35,-3.04 2.68,-6.09 4.01,-9.14l0.06 0.61 0.05 0.62 0.06 0.62 0.05 0.61 0.01 0.04 0.05 0.58 0.05 0.62 0.05 0.62 0.05 0.61 0.05 0.62 0.05 0.62 0.05 0.62 0.05 0.62 0.04 0.62 0.02 0.18 0.03 0.44 0.04 0.62 0.05 0.63 0.04 0.62 0.04 0.55 0 0.07 0.04 0.62 0.12 1.87 0.02 0.32 0.02 0.3 0.11 1.88 0.03 0.62 0.01 0.07 0.03 0.56 0.03 0.63 0.06 1.25 0.02 0.45 0.01 0.18 0.03 0.62 0.03 0.63 0.02 0.63 0.03 0.63 0.01 0.21 0.02 0.42 0.02 0.63 0.02 0.62 0.04 1.23 0.01 0.03 0.02 0.63 0.02 0.64 0.02 0.63 0.01 0.63 0.01 0.35 0.01 0.28 0.02 0.63 0.01 0.64 0.02 0.63 0.01 0.63 0 0.11 0.01 0.52 0.03 1.91 0.01 0.49 0 0.14 0.01 0.64 0.01 0.63 0.01 1.27 0 0.25 0 0.39 0.01 2.55c0,1.8 -0.01,3.6 -0.03,5.39l0 0.01c-0.03,1.79 -0.06,3.58 -0.1,5.36l0 0.03c-0.05,1.76 -0.1,3.51 -0.17,5.27l0 0.04 0 0.05c-0.06,1.76 -0.14,3.52 -0.23,5.27l0 0.06c-0.08,1.75 -0.18,3.5 -0.29,5.24l0 0.07c-0.11,1.74 -0.23,3.47 -0.36,5.2l0 0.09c-0.13,1.72 -0.27,3.44 -0.42,5.16l0 0.09c-0.46,5.2 -1,10.36 -1.63,15.47l-0.02 0.14c-0.42,3.38 -0.88,6.75 -1.38,10.09l-0.02 0.16c-0.5,3.34 -1.04,6.65 -1.62,9.95l0 0 -0.03 0.18c-0.27,1.56 -0.55,3.1 -0.84,4.65l-0.03 0.17 -0.04 0.2c-0.29,1.52 -0.58,3.04 -0.88,4.56l-0.05 0.21 -0.04 0.21c-6.19,4.51 -12.08,9.46 -18.05,14.27 -3.88,3.12 -7.09,3.12 -9.17,-1.35 -1.94,-4.2 -3.43,-8.9 -3.78,-13.48 -1.09,-14.41 -1.34,-28.88 -2.33,-43.3 -0.51,-7.47 -1.69,-14.91 -3.04,-22.27 -0.28,-1.53 -3.02,-3.95 -4.05,-3.69 -1.84,0.46 -3.65,2.42 -4.71,4.2 -0.91,1.51 -0.93,3.65 -1.03,5.54 -0.58,11.01 -0.98,22.03 -1.63,33.04 -0.26,4.38 -0.91,8.75 -1.66,13.07 -0.14,0.82 -1.58,1.43 -2.42,2.14 -0.61,-0.75 -1.41,-1.42 -1.78,-2.27 -0.41,-0.92 -0.41,-2.02 -0.6,-3.04 -2.77,-15.1 -5.41,-30.22 -8.39,-45.28 -0.79,-3.99 -2.18,-8.03 -4.2,-11.53 -1.07,-1.87 -4.08,-3.61 -6.16,-3.54 -1.3,0.04 -3.63,3.59 -3.54,5.47 0.32,6.29 1.37,12.56 2.42,18.78 2.16,12.79 4.58,25.54 6.66,38.34 0.3,1.8 -0.73,3.81 -1.15,5.72 -0.47,-0.03 -0.93,-0.06 -1.4,-0.09 -0.5,-1.01 -1.07,-1.99 -1.49,-3.04 -4.59,-11.3 -9.17,-22.61 -13.72,-33.93 -1.75,-4.37 -3.25,-8.84 -5.14,-13.14 -1.18,-2.66 -3.1,-4.84 -6.54,-3.77 -3.37,1.05 -3.83,3.76 -3.43,6.77 0.22,1.61 0.41,3.26 0.96,4.77 5.02,13.82 10.16,27.59 15.17,41.41 0.6,1.65 0.61,3.5 0.9,5.26 -1.92,-0.69 -4.27,-0.9 -5.66,-2.17 -2.7,-2.47 -4.91,-5.48 -7.22,-8.34 -4.64,-5.73 -9.05,-11.64 -13.91,-17.17 -1.15,-1.31 -3.71,-1.38 -5.62,-2.02 -0.64,2.05 -1.42,4.07 -1.85,6.16 -0.14,0.72 0.47,1.69 0.92,2.43 3.44,5.64 7.14,11.14 10.36,16.9 4.41,7.92 9.12,15.78 12.45,24.17 2.4,6.06 2.44,13.02 4.09,19.44 2.17,8.46 5.15,16.54 12.13,22.61 1.89,1.65 3.2,4.68 3.56,7.24 2.1,15.11 4.11,30.23 6.09,45.36l-50.04 0 -0.02 -0.5c-0.44,-11 -1.74,-21.97 -2.8,-32.94 -0.38,-3.93 -2.42,-6.09 -6.38,-7.73 -5.28,-2.17 -10.69,-4.56 -15.49,-7.67l-0.1 -0.74 -0.09 -0.74 -0.05 -0.41 -0.04 -0.33 -0.09 -0.74 -0.08 -0.74 -0.09 -0.75 -0.08 -0.74 -0.09 -0.74 -0.08 -0.75 -0.16 -1.49 -0.07 -0.74 -0.08 -0.75 -0.07 -0.75 -0.01 -0.06 -0.07 -0.69 -0.15 -1.67 -0.06 -0.57 -0.06 -0.75 -0.07 -0.75 -0.06 -0.75 -0.1 -1.2 -0.03 -0.31 -0.06 -0.75 -0.06 -0.75 -0.03 -0.45 -0.02 -0.3 -0.06 -0.76 -0.05 -0.75 -0.06 -0.76 -0.02 -0.33 -0.03 -0.42 -0.05 -0.76 -0.04 -0.75 -0.05 -0.76 -0.02 -0.21 -0.03 -0.55 -0.04 -0.76 -0.04 -0.76 -0.04 -0.75 -0.01 -0.1 -0.03 -0.66 -0.11 -2.25 -0.01 -0.03 -0.11 -2.8 -0.01 -0.1 0 -0.15 -0.05 -1.53 -0.03 -0.76 -0.02 -0.49 0 -0.28 -0.02 -0.76 -0.04 -1.53 -0.01 -0.37 -0.01 -0.4 -0.04 -2.3 -0.01 -0.25 0 -0.52 -0.02 -1.54 -0.01 -0.76 0 -0.13 -0.01 -0.64 0 -2.32c0,-1.62 0.01,-3.25 0.03,-4.87l0 -0.29 0 -0.06 0.01 -0.35c0.02,-1.39 0.05,-2.78 0.08,-4.16l0.01 -0.35 0.01 -0.34 0.01 -0.35 0.01 -0.35c0.03,-1.04 0.06,-2.07 0.1,-3.11l0.01 -0.34 0.07 -1.73 0.02 -0.34 0.01 -0.35 0.02 -0.34 0.01 -0.34 0.02 -0.35 0.02 -0.34 0.01 -0.35 0.02 -0.34 0.02 -0.34 0.1 -2.07 0.02 -0.34 0.02 -0.34c2.06,0.11 4.57,-0.6 6.01,-1.74 2.59,-2.05 4.72,-5.18 6.03,-8.29 4.34,-10.3 3.24,-21.18 1.35,-31.69 -1.35,-7.48 -2.76,-14.96 -4.22,-22.42l0.26 -1.11 0.02 -0.08 0.78 -3.23 0.27 -1.1 0.28 -1.1 0.56 -2.2 0.28 -1.09 0.29 -1.09c0.28,-1.06 0.57,-2.12 0.86,-3.17l0.02 -0.1 0.3 -1.08 0.04 -0.13 0.89 -3.12 0.31 -1.08 0.31 -1.08 0.65 -2.14 0.32 -1.08 0.33 -1.07 1 -3.17 0.01 -0.03 0.34 -1.06 0.04 -0.13 1 -3.04 0.35 -1.06 0.36 -1.05 1.02 -2.96 0.07 -0.19 0.36 -1.05 0.03 -0.07 0.72 -2.01 0.38 -1.04 0.38 -1.04 0.1 -0.29 0.93 -2.49 0.12 -0.32 0.4 -1.03 0.14 -0.38c0.35,-0.9 0.7,-1.81 1.05,-2.7l0.41 -1.03 0.4 -1.02 0.97 -2.38 0.74 -1.8 0.79 -1.9 0.43 -1 0.43 -1.01 0.43 -1 0.81 -1.85 0.96 -2.16 0.85 -1.88 0.04 -0.08 1.84 5.57c3.3,9.96 6.56,19.96 10.5,29.67 1.34,3.29 4.41,6.12 7.27,8.42 2.46,1.96 4.93,0.96 5.24,-2.63 0.24,-2.68 0.34,-5.43 0.07,-8.11 -1.34,-13.04 -2.98,-26.04 -4.22,-39.09 -0.9,-9.46 -1.76,-18.93 -2.43,-28.41l0.01 -0.02 1.17 -1.91 0.06 -0.1 0.42 -0.67 0.75 -1.21 0.93 -1.48 0.42 -0.67 0.85 -1.33 0.43 -0.66 1.04 -1.6 0.69 -1.04 0.43 -0.66 0.1 -0.15 1.16 -1.71 1.47 -2.17 0.94 -1.36 1.7 -2.42 0.95 -1.33c0.57,-0.79 1.14,-1.58 1.71,-2.37l0.78 -1.06 1.81 -2.42 0.95 -1.26 1.73 -2.26 0.84 -1.08c0.65,-0.83 1.31,-1.66 1.97,-2.48l0.8 -1c0.68,-0.84 1.36,-1.67 2.04,-2.5l0.81 -0.97c0.74,-0.9 1.48,-1.78 2.23,-2.66l0.17 1.84c1.5,16.57 2.9,33.14 4.37,49.71 1.27,14.5 2.29,29.03 4.03,43.46 0.63,5.27 2.76,10.43 4.78,15.39 0.61,1.49 3.18,2.17 4.84,3.21 0.86,-1.59 2.31,-3.11 2.49,-4.77 0.81,-7.64 1.15,-15.31 1.87,-22.95 1.04,-11.14 2.13,-22.27 3.43,-33.38 1.93,-16.65 4.02,-33.28 6.13,-49.9 1.16,-9.18 1.95,-18.44 3.91,-27.44 0.67,-3.07 1.88,-5.31 3.57,-6.86zm16.76 284.79l-0.14 0.46 -0.71 2.29 -0.15 0.46 -0.14 0.46 -0.15 0.45 -0.14 0.46 -0.14 0.46 -0.59 1.82 -0.15 0.45 -0.6 1.81 -0.15 0.45 -0.15 0.46 -0.44 1.3c-0.39,1.17 -0.8,2.33 -1.2,3.49l-0.21 0.58 0 0.01 -0.16 0.45c-0.42,1.19 -0.85,2.38 -1.28,3.56l-0.11 0.29 -0.05 0.15 -0.01 0.01c-0.51,1.41 -1.04,2.82 -1.57,4.21l-0.04 0.1 -0.03 0.08 -0.02 0.04c-0.54,1.42 -1.09,2.84 -1.65,4.25l-0.03 0.05 0 0.02c-0.64,-3.96 -1.24,-7.92 -1.8,-11.89 -0.22,-1.5 0.25,-3.89 1.29,-4.64 4.54,-3.26 7.77,-7.49 10.52,-12.09z"/>
   </g>
   <g>
   </g>
   <g style="clip-path:url(#id0)">
    <g>
     <ellipse class="fil1" cx="107.24" cy="198.08" rx="216.45" ry="304.96"/>
     <ellipse class="fil0" cx="437.18" cy="293.1" rx="265.87" ry="319.69"/>
     <path class="fil2" d="M288.21 27.12c23.04,48.47 36.49,106.77 36.49,169.49 0,115.26 -45.39,215.57 -112.35,267.42 -26.3,-49.59 -41.55,-108.48 -41.55,-171.67 0,-110.44 46.58,-207.81 117.41,-265.24z"/>
    </g>
   </g>
   <path class="fil3" d="M173.83 340.76c-1.5,-0.97 -2.95,-2.01 -4.3,-3.15 -10.58,-8.81 -20.42,-18.58 -30.11,-28.43 -15.22,-15.47 -32.68,-26.86 -53.55,-32.79 -7.39,-2.1 -14.75,-4.51 -21.81,-7.55 -6.93,-2.99 -8.62,-7.89 -6.77,-15.3 1.98,-7.92 6.81,-13.19 14.64,-14.45 5.98,-0.97 12.35,-1.44 18.26,-0.45 22.54,3.79 43.47,12.37 63.48,23.42 5.24,2.9 10.55,5.8 16.13,7.85 0.48,0.18 1.04,0.28 1.63,0.31 -0.41,7.32 -0.63,14.7 -0.63,22.14 0,16.46 1.03,32.62 3.03,48.4zm6.77 -134.68c-2.88,-14.76 -5.94,-29.48 -9.04,-44.2 -5.51,-26.18 -11.7,-52.23 -16.85,-78.49 -1.51,-7.68 -0.87,-15.88 -0.47,-23.81 0.23,-4.59 2.66,-8.77 7.64,-9.86 5.18,-1.13 9.38,1.13 12.09,5.59 2.22,3.64 4.39,7.46 5.74,11.49 8.02,23.97 15.8,48.02 23.72,72.02 -9.62,21.09 -17.33,43.62 -22.83,67.26zm41.1 -101.85c-0.26,-3.6 -0.49,-7.2 -0.68,-10.8 -1.07,-20.14 -2.03,-40.3 -2.33,-60.45 -0.08,-5.36 1.92,-10.97 3.93,-16.08 1.9,-4.81 6.27,-6.9 11.52,-6.8 4.99,0.09 7.96,3.17 9.55,7.34 1.8,4.73 3.38,9.69 4.04,14.68 1.37,10.48 2.23,21.03 3.17,31.57 -10.64,12.5 -20.42,26.06 -29.2,40.54z"/>
   <g>
   </g>
   <g style="clip-path:url(#id1)">
    <g>
     <ellipse class="fil1" cx="107.24" cy="198.08" rx="216.45" ry="304.96"/>
     <ellipse class="fil0" cx="437.18" cy="293.1" rx="265.87" ry="319.69"/>
     <path class="fil2" d="M288.21 27.12c23.04,48.47 36.49,106.77 36.49,169.49 0,115.26 -45.39,215.57 -112.35,267.42 -26.3,-49.59 -41.55,-108.48 -41.55,-171.67 0,-110.44 46.58,-207.81 117.41,-265.24z"/>
    </g>
   </g>
   <path class="fil3" d="M297.23 345.4c-0.64,-3.96 -1.24,-7.92 -1.8,-11.89 -0.22,-1.5 0.25,-3.89 1.29,-4.64 4.54,-3.26 7.77,-7.49 10.52,-12.09 -2.99,9.81 -6.33,19.37 -10.01,28.62zm19.29 -65.47c-6.19,4.51 -12.08,9.46 -18.05,14.27 -3.88,3.12 -7.09,3.12 -9.17,-1.35 -1.94,-4.2 -3.43,-8.9 -3.78,-13.48 -1.09,-14.41 -1.34,-28.88 -2.33,-43.3 -0.51,-7.47 -1.69,-14.91 -3.04,-22.27 -0.28,-1.53 -3.02,-3.95 -4.05,-3.69 -1.84,0.46 -3.65,2.42 -4.71,4.2 -0.91,1.51 -0.93,3.65 -1.03,5.54 -0.58,11.01 -0.98,22.03 -1.63,33.04 -0.26,4.38 -0.91,8.75 -1.66,13.07 -0.14,0.82 -1.58,1.43 -2.42,2.14 -0.61,-0.75 -1.41,-1.42 -1.78,-2.27 -0.41,-0.92 -0.41,-2.02 -0.6,-3.04 -2.77,-15.1 -5.41,-30.22 -8.39,-45.28 -0.79,-3.99 -2.18,-8.03 -4.2,-11.53 -1.07,-1.87 -4.08,-3.61 -6.16,-3.54 -1.3,0.04 -3.63,3.59 -3.54,5.47 0.32,6.29 1.37,12.56 2.42,18.78 2.16,12.79 4.58,25.54 6.66,38.34 0.3,1.8 -0.73,3.81 -1.15,5.72 -0.47,-0.03 -0.93,-0.06 -1.4,-0.09 -0.5,-1.01 -1.07,-1.99 -1.49,-3.04 -4.59,-11.3 -9.17,-22.61 -13.72,-33.93 -1.75,-4.37 -3.25,-8.84 -5.14,-13.14 -1.18,-2.66 -3.1,-4.84 -6.54,-3.77 -3.37,1.05 -3.83,3.76 -3.43,6.77 0.22,1.61 0.41,3.26 0.96,4.77 5.02,13.82 10.16,27.59 15.17,41.41 0.6,1.65 0.61,3.5 0.9,5.26 -1.92,-0.69 -4.27,-0.9 -5.66,-2.17 -2.7,-2.47 -4.91,-5.48 -7.22,-8.34 -4.64,-5.73 -9.05,-11.64 -13.91,-17.17 -1.15,-1.31 -3.71,-1.38 -5.62,-2.02 -0.64,2.05 -1.42,4.07 -1.85,6.16 -0.14,0.72 0.47,1.69 0.92,2.43 3.44,5.64 7.14,11.14 10.36,16.9 4.41,7.92 9.12,15.78 12.45,24.17 2.4,6.06 2.44,13.02 4.09,19.44 2.17,8.46 5.15,16.54 12.13,22.61 1.89,1.65 3.2,4.68 3.56,7.24 2.1,15.11 4.11,30.23 6.09,45.36l-50.04 0 -0.02 -0.5c-0.44,-11 -1.74,-21.97 -2.8,-32.94 -0.38,-3.93 -2.42,-6.09 -6.38,-7.73 -5.28,-2.17 -10.69,-4.56 -15.49,-7.67 -2,-15.78 -3.03,-31.94 -3.03,-48.4 0,-7.44 0.22,-14.82 0.63,-22.14 2.06,0.11 4.57,-0.6 6.01,-1.74 2.59,-2.05 4.72,-5.18 6.03,-8.29 4.34,-10.3 3.24,-21.18 1.35,-31.69 -1.35,-7.48 -2.76,-14.96 -4.22,-22.42 5.5,-23.64 13.2,-46.18 22.83,-67.27l1.84 5.57c3.3,9.96 6.56,19.96 10.5,29.67 1.34,3.29 4.41,6.12 7.27,8.42 2.46,1.96 4.93,0.96 5.24,-2.63 0.24,-2.68 0.34,-5.43 0.07,-8.11 -1.34,-13.04 -2.98,-26.04 -4.22,-39.09 -0.9,-9.46 -1.76,-18.93 -2.43,-28.41 8.78,-14.48 18.55,-28.05 29.19,-40.55l0.17 1.84c1.5,16.57 2.9,33.14 4.37,49.71 1.27,14.5 2.29,29.03 4.03,43.46 0.63,5.27 2.76,10.43 4.78,15.39 0.61,1.49 3.18,2.17 4.84,3.21 0.86,-1.59 2.31,-3.11 2.49,-4.77 0.81,-7.64 1.15,-15.31 1.87,-22.95 1.04,-11.14 2.13,-22.27 3.43,-33.38 1.93,-16.65 4.02,-33.28 6.13,-49.9 1.16,-9.18 1.95,-18.44 3.91,-27.44 0.67,-3.07 1.88,-5.31 3.57,-6.86 7.59,16.65 14.06,34.4 19.27,53.06 -0.46,6.72 -0.92,13.45 -1.3,20.18 -0.42,7.52 0.2,15.12 -0.61,22.57 -1.53,14.27 -3.9,28.45 -5.55,42.71 -0.28,2.46 1.31,5.14 2.04,7.71 2.69,-0.87 6.05,-1.01 7.9,-2.78 2.79,-2.66 5.02,-6.23 6.6,-9.82 1.35,-3.04 2.68,-6.09 4.01,-9.14 1.23,13.13 1.86,26.52 1.86,40.13 0,28.89 -2.85,56.84 -8.18,83.32z"/>
  </g>
  <path class="fil4" d="M70.9 453.3l-53.84 0c0.79,5.94 3.15,10.73 7.01,14.42 3.89,3.68 8.84,5.51 14.87,5.51 8.77,0 15.73,-3.52 20.84,-10.58l11.12 4.91c-3.61,5.58 -8.31,9.74 -14.1,12.45 -5.79,2.72 -11.82,4.07 -18.15,4.07 -9.79,0 -18.17,-3.05 -25.13,-9.17 -6.94,-6.13 -10.43,-14.38 -10.43,-24.78 0,-9.83 3.4,-17.95 10.18,-24.32 6.78,-6.35 14.55,-9.54 23.32,-9.54 8.61,0 16.41,3.1 23.42,9.31 7.01,6.2 10.62,15.44 10.89,27.72zm-13.02 -9.09c-0.88,-4.52 -3.21,-8.61 -7,-12.27 -3.78,-3.67 -8.43,-5.5 -13.93,-5.5 -5.01,0 -9.31,1.65 -12.88,4.95 -3.57,3.33 -5.74,7.58 -6.53,12.82l40.34 0zm102.55 26.72l0 11.25 -24.14 0 0 -9.38c-6.26,6.99 -13.9,10.47 -22.91,10.47 -8.34,0 -15.69,-2.85 -22,-8.55 -6.3,-5.69 -9.47,-13.81 -9.47,-24.32 0,-10.55 3.26,-18.89 9.74,-24.98 6.49,-6.1 13.81,-9.15 22,-9.15 8.65,0 16.2,3.44 22.64,10.33l0 -25.25 -12.34 0 0 -11.25 24.96 0 0 80.83 11.52 0zm-65.09 -20.89c0,7.05 1.99,12.48 5.99,16.27 4,3.8 8.79,5.7 14.35,5.7 5.4,0 10.17,-1.99 14.35,-5.99 4.18,-4 6.26,-9.52 6.26,-16.57 0,-7.12 -2.12,-12.47 -6.39,-16.09 -4.27,-3.62 -9.04,-5.43 -14.35,-5.43 -5.7,0 -10.49,2.13 -14.38,6.4 -3.89,4.25 -5.83,9.5 -5.83,15.71zm140.5 20.89l0 11.25 -23.73 0 0 -7.34c-7.37,5.62 -14.42,8.43 -21.18,8.43 -4.28,0 -7.82,-0.95 -10.63,-2.83 -2.8,-1.87 -4.65,-4.29 -5.58,-7.28 -0.93,-2.98 -1.4,-7.77 -1.4,-14.39l0 -29.48 -9.09 0 0 -11.26 21.7 0 0 39.09c0,4.72 0.14,7.91 0.41,9.54 0.25,1.62 1.02,2.98 2.3,4.04 1.27,1.06 2.9,1.58 4.82,1.58 5.83,0 12.05,-2.78 18.65,-8.34l0 -34.65 -11.4 0 0 -11.26 24.01 0 0 52.9 11.12 0zm66.72 -52.9l0 24.28 -11.25 0c-0.57,-4.63 -2.47,-8.18 -5.65,-10.67 -3.19,-2.46 -6.9,-3.71 -11.12,-3.71 -5.65,0 -10.22,2.02 -13.75,6.02 -3.52,4 -5.28,9.26 -5.28,15.78 0,6.05 1.67,11.39 5.01,16.02 3.35,4.63 8.19,6.94 14.54,6.94 8.79,0 15.19,-4.21 19.14,-12.61l10.4 4.9c-5.74,12.73 -15.78,19.1 -30.11,19.1 -10.15,0 -18.13,-3.46 -23.96,-10.4 -5.81,-6.94 -8.72,-14.94 -8.72,-24 0,-9.68 3.18,-17.68 9.54,-23.96 6.35,-6.31 13.67,-9.45 21.97,-9.45 7.09,0 13.08,2.1 17.99,6.28l0 -4.52 11.25 0zm75.55 52.9l0 11.25 -22.11 0 0 -7.82c-6.08,5.95 -12.89,8.91 -20.39,8.91 -5.83,0 -10.89,-1.9 -15.19,-5.7 -4.32,-3.8 -6.46,-8.63 -6.46,-14.56 0,-5.94 2.28,-10.89 6.84,-14.8 4.59,-3.93 10.11,-5.9 16.55,-5.9 6.01,0 11.82,1.81 17.43,5.42l0 -6.37c0,-3.3 -0.32,-5.81 -0.93,-7.59 -0.63,-1.77 -2.08,-3.37 -4.36,-4.79 -2.26,-1.43 -5.25,-2.13 -8.93,-2.13 -6.33,0 -10.89,2.53 -13.74,7.6l-12.05 -3.19c5.36,-9.99 14.6,-14.99 27.73,-14.99 4.82,0 9,0.66 12.5,1.95 3.53,1.31 6.15,2.98 7.87,5.04 1.74,2.05 2.89,4.27 3.48,6.64 0.61,2.38 0.91,6.17 0.91,11.39l0 29.64 10.85 0zm-23.33 -12.5c-5.43,-4.23 -10.94,-6.35 -16.5,-6.35 -3.48,0 -6.4,1.01 -8.75,3.02 -2.33,2.04 -3.5,4.64 -3.5,7.85 0,3 1.01,5.49 3.07,7.52 2.06,2.02 4.86,3.03 8.39,3.03 6.1,0 11.86,-2.55 17.29,-7.64l0 -7.43z"/>
  <polygon class="fil5" points="430.66,416.8 430.66,372.49 453.63,372.49 453.63,416.8 497.94,416.8 497.94,439.77 453.63,439.77 453.63,484.08 430.66,484.08 430.66,439.77 386.35,439.77 386.35,416.8 "/>
 </g>
</svg>
