<?xml version="1.0" encoding="UTF-8"?>
<!DOCTYPE svg PUBLIC "-//W3C//DTD SVG 1.1//EN" "http://www.w3.org/Graphics/SVG/1.1/DTD/svg11.dtd">
<!-- Creator: CorelDRAW 2017 -->
<svg xmlns="http://www.w3.org/2000/svg" xml:space="preserve" width="500px" height="500px" version="1.1" style="shape-rendering:geometricPrecision; text-rendering:geometricPrecision; image-rendering:optimizeQuality; fill-rule:evenodd; clip-rule:evenodd"
viewBox="0 0 500 500"
 xmlns:xlink="http://www.w3.org/1999/xlink">
 <defs>
  <style type="text/css">
   <![CDATA[
    .fil3 {fill:none}
    .fil0 {fill:#80CCEC}
    .fil2 {fill:#2AB6EA}
    .fil1 {fill:#00ACE6}
   ]]>
  </style>
    <clipPath id="id0">
     <path d="M186 431.4c-1.96,-1.26 -3.83,-2.62 -5.6,-4.09 -13.76,-11.48 -26.58,-24.2 -39.18,-37.01 -19.82,-20.13 -42.53,-34.97 -69.69,-42.67 -9.62,-2.73 -19.2,-5.88 -28.38,-9.83 -9.03,-3.89 -11.23,-10.26 -8.82,-19.91 2.57,-10.31 8.86,-17.17 19.06,-18.81 7.78,-1.26 16.06,-1.88 23.76,-0.58 29.33,4.93 56.57,16.1 82.62,30.48 6.81,3.76 13.72,7.54 20.98,10.21 0.63,0.23 1.36,0.36 2.13,0.4 -0.54,9.52 -0.83,19.13 -0.83,28.82 0,21.42 1.35,42.45 3.95,62.99zm8.81 -175.28c-3.75,-19.21 -7.73,-38.37 -11.76,-57.52 -7.18,-34.08 -15.23,-67.98 -21.93,-102.15 -1.96,-9.99 -1.14,-20.67 -0.62,-30.99 0.31,-5.97 3.46,-11.42 9.95,-12.83 6.73,-1.47 12.2,1.46 15.73,7.27 2.9,4.74 5.72,9.71 7.47,14.95 10.44,31.2 20.56,62.5 30.87,93.73 -12.52,27.45 -22.55,56.77 -29.71,87.54zm53.49 -132.55c-0.34,-4.69 -0.63,-9.38 -0.88,-14.06 -1.4,-26.21 -2.65,-52.44 -3.03,-78.67 -0.11,-6.98 2.49,-14.28 5.11,-20.92 2.47,-6.27 8.15,-8.99 14.99,-8.86 6.49,0.12 10.36,4.13 12.43,9.56 2.35,6.15 4.4,12.61 5.25,19.1 1.79,13.64 2.9,27.37 4.13,41.09 -13.85,16.26 -26.57,33.91 -38,52.76z"/>
    </clipPath>
    <clipPath id="id1">
     <path d="M346.6 437.43c-0.83,-5.15 -1.61,-10.31 -2.35,-15.47 -0.28,-1.95 0.33,-5.06 1.68,-6.03 5.91,-4.25 10.11,-9.75 13.69,-15.74 -3.89,12.77 -8.24,25.2 -13.02,37.24zm25.1 -85.2c-8.05,5.87 -15.72,12.31 -23.48,18.57 -5.06,4.07 -9.24,4.07 -11.94,-1.76 -2.53,-5.46 -4.47,-11.58 -4.92,-17.54 -1.42,-18.75 -1.75,-37.59 -3.04,-56.35 -0.66,-9.72 -2.19,-19.4 -3.95,-28.99 -0.37,-1.98 -3.93,-5.13 -5.28,-4.8 -2.39,0.6 -4.74,3.15 -6.12,5.47 -1.18,1.97 -1.21,4.76 -1.34,7.21 -0.76,14.33 -1.27,28.68 -2.12,43 -0.34,5.7 -1.19,11.38 -2.16,17.01 -0.19,1.07 -2.06,1.86 -3.16,2.78 -0.79,-0.97 -1.82,-1.84 -2.31,-2.95 -0.53,-1.2 -0.54,-2.63 -0.78,-3.95 -3.6,-19.65 -7.04,-39.34 -10.92,-58.94 -1.03,-5.19 -2.84,-10.45 -5.46,-15 -1.39,-2.43 -5.32,-4.7 -8.02,-4.61 -1.7,0.05 -4.73,4.68 -4.61,7.12 0.42,8.19 1.79,16.34 3.15,24.45 2.81,16.64 5.97,33.23 8.67,49.89 0.38,2.34 -0.95,4.96 -1.5,7.45 -0.61,-0.04 -1.21,-0.08 -1.82,-0.12 -0.66,-1.32 -1.39,-2.6 -1.94,-3.95 -5.98,-14.72 -11.94,-29.43 -17.86,-44.17 -2.27,-5.68 -4.22,-11.5 -6.69,-17.09 -1.53,-3.47 -4.04,-6.31 -8.51,-4.91 -4.38,1.36 -4.98,4.89 -4.46,8.81 0.28,2.09 0.53,4.24 1.24,6.21 6.55,17.97 13.23,35.9 19.75,53.89 0.78,2.14 0.79,4.56 1.17,6.85 -2.5,-0.9 -5.56,-1.18 -7.36,-2.84 -3.51,-3.2 -6.39,-7.12 -9.4,-10.85 -6.03,-7.45 -11.78,-15.15 -18.1,-22.34 -1.5,-1.71 -4.83,-1.8 -7.32,-2.63 -0.83,2.67 -1.84,5.3 -2.4,8.02 -0.19,0.94 0.6,2.19 1.19,3.16 4.48,7.34 9.3,14.49 13.48,22 5.74,10.3 11.88,20.53 16.2,31.44 3.13,7.9 3.18,16.95 5.33,25.31 2.83,11.01 6.7,21.52 15.79,29.43 2.46,2.14 4.17,6.08 4.63,9.41 2.73,19.67 5.35,39.35 7.93,59.04l-65.13 0 -0.02 -0.65c-0.58,-14.32 -2.27,-28.59 -3.64,-42.86 -0.5,-5.12 -3.15,-7.93 -8.31,-10.06 -6.87,-2.84 -13.91,-5.94 -20.16,-9.99 -2.6,-20.54 -3.95,-41.57 -3.95,-62.99 0,-9.69 0.29,-19.3 0.83,-28.82 2.68,0.15 5.94,-0.78 7.82,-2.26 3.36,-2.66 6.14,-6.74 7.85,-10.79 5.65,-13.41 4.21,-27.56 1.75,-41.24 -1.75,-9.74 -3.59,-19.47 -5.49,-29.18 7.16,-30.77 17.18,-60.1 29.71,-87.55l2.39 7.25c4.3,12.96 8.54,25.98 13.67,38.61 1.74,4.28 5.74,7.97 9.47,10.96 3.2,2.56 6.41,1.25 6.82,-3.42 0.3,-3.49 0.44,-7.07 0.08,-10.55 -1.74,-16.97 -3.88,-33.9 -5.49,-50.87 -1.17,-12.32 -2.29,-24.64 -3.16,-36.98 11.43,-18.85 24.14,-36.51 37.99,-52.78l0.22 2.39c1.95,21.57 3.78,43.14 5.68,64.71 1.67,18.86 2.99,37.77 5.25,56.56 0.83,6.85 3.59,13.57 6.23,20.02 0.79,1.95 4.13,2.82 6.29,4.18 1.13,-2.06 3.01,-4.05 3.24,-6.21 1.05,-9.93 1.51,-19.93 2.44,-29.87 1.35,-14.49 2.77,-28.98 4.46,-43.44 2.52,-21.66 5.24,-43.31 7.97,-64.94 1.52,-11.94 2.55,-24 5.1,-35.72 0.86,-3.98 2.45,-6.91 4.64,-8.92 9.88,21.67 18.31,44.78 25.08,69.05 -0.59,8.76 -1.19,17.51 -1.68,26.27 -0.56,9.78 0.25,19.67 -0.8,29.37 -2,18.58 -5.08,37.03 -7.23,55.59 -0.36,3.19 1.71,6.68 2.65,10.03 3.5,-1.13 7.88,-1.31 10.3,-3.62 3.62,-3.46 6.53,-8.11 8.59,-12.78 1.74,-3.96 3.48,-7.93 5.21,-11.9 1.59,17.1 2.42,34.53 2.42,52.23 0,37.6 -3.71,73.98 -10.65,108.44z"/>
    </clipPath>
 </defs>
 <g id="Camada_x0020_1">
  <metadata id="CorelCorpID_0Corel-Layer"/>
  <g id="_764063136">
   <path class="fil0" d="M346.6 437.43c4.78,-12.04 9.13,-24.47 13.02,-37.24 1.14,-1.9 2.21,-3.85 3.25,-5.82 6.29,-11.87 13.79,-22.63 25.61,-29.71 2.96,-1.77 6.26,-3.28 8.6,-5.68 2.02,-2.07 4.65,-5.97 3.91,-7.78 -1.25,-3.03 -4.94,-7.01 -7.66,-7.06 -5.24,-0.09 -11.36,1.04 -15.62,3.89 -2.03,1.36 -4.03,2.77 -6.01,4.21 6.94,-34.47 10.65,-70.85 10.65,-108.45 0,-17.7 -0.82,-35.14 -2.42,-52.23 8.69,-19.95 17.19,-40 25.76,-60.01 3.67,-8.57 6.86,-17.37 11.07,-25.65 3.28,-6.44 8.98,-8.47 15,-6.89 5.94,1.57 9.59,6.15 9.47,13.59 -0.12,7.45 -0.07,15.2 -2.06,22.26 -5.44,19.32 -12.08,38.29 -17.93,57.5 -9.21,30.25 -19.37,59.98 -14.83,92.98 3.19,23.18 2.7,46.96 2.71,70.47 0.01,21.5 -4.61,41.97 -16.8,60.32 -3.4,5.13 -6.16,11.81 -6.3,17.84 -0.47,20.31 0.26,40.65 0.51,60.99l-29.2 0c-2.6,-13.33 -5.18,-26.65 -7.69,-39.99 -1.09,-5.83 -2.1,-11.68 -3.04,-17.54zm16.29 -338.83c-6.77,-24.27 -15.2,-47.38 -25.08,-69.05 2.84,-2.61 6.71,-3.68 11.33,-3.52 7.41,0.26 12.84,4.75 14.45,13.59 1.29,7.09 1.95,14.48 1.61,21.67 -0.59,12.45 -1.45,24.88 -2.31,37.31z"/>
   <g>
    <path class="fil1" d="M286.3 70.81c-6.45,7.57 -12.66,15.44 -18.61,23.6 5.95,-8.16 12.16,-16.04 18.6,-23.62l0.01 0.02zm-18.72 23.75c-3.36,4.63 -6.64,9.34 -9.84,14.14 3.2,-4.8 6.48,-9.51 9.84,-14.14zm-9.91 14.24c-1.02,1.53 -2.03,3.08 -3.03,4.63 1,-1.55 2.01,-3.09 3.03,-4.63zm-3.37 5.15c-0.92,1.44 -1.84,2.89 -2.75,4.35 0.91,-1.46 1.83,-2.91 2.75,-4.35zm-3.06 4.83c-0.94,1.51 -1.87,3.03 -2.8,4.55 0.93,-1.52 1.86,-3.04 2.8,-4.55zm-26.72 49.8l-0.78 1.72 0.78 -1.73 0 0.01zm-1.35 2.98c-0.63,1.41 -1.25,2.82 -1.87,4.24 0.62,-1.42 1.24,-2.83 1.87,-4.24zm-2.55 5.81c-0.57,1.31 -1.13,2.64 -1.69,3.97 0.56,-1.33 1.12,-2.65 1.69,-3.97zm-38.41 178.37c-0.04,1.81 -0.08,3.61 -0.1,5.42 0.02,-1.81 0.06,-3.61 0.1,-5.42zm-0.11 6.05c-0.03,2.21 -0.05,4.41 -0.05,6.62 0,-2.21 0.02,-4.41 0.05,-6.62z"/>
    <g>
     <path class="fil0" d="M346.82 436.87c0.66,-1.68 1.32,-3.37 1.97,-5.07 -0.65,1.7 -1.3,3.39 -1.97,5.07zm2.21 -5.68c0.65,-1.71 1.29,-3.43 1.93,-5.16 -0.64,1.73 -1.28,3.45 -1.93,5.16zm2.14 -5.73c0.56,-1.54 1.11,-3.08 1.66,-4.63 -0.55,1.55 -1.1,3.09 -1.66,4.63zm2.23 -6.25l1.46 -4.21c-0.48,1.41 -0.97,2.81 -1.46,4.21zm18.3 -66.97c0.43,-2.16 0.86,-4.32 1.26,-6.49 -0.4,2.17 -0.82,4.33 -1.26,6.48l0 0.01zm1.34 -6.86c0.38,-2.05 0.75,-4.1 1.11,-6.16 -0.36,2.06 -0.73,4.11 -1.11,6.16zm1.16 -6.44c0.75,-4.27 1.44,-8.58 2.09,-12.9 -0.65,4.32 -1.34,8.63 -2.09,12.9zm2.16 -13.34c1.62,-10.91 2.93,-21.99 3.9,-33.22 -0.97,11.23 -2.28,22.31 -3.9,33.22zm4.46 -40.19c0.33,-4.53 0.62,-9.08 0.84,-13.66 -0.22,4.58 -0.51,9.13 -0.84,13.66zm1.53 -41.62c0,2.34 -0.02,4.68 -0.04,7.02l0.04 -7.02zm-0.04 7.04c-0.03,2.32 -0.08,4.64 -0.13,6.96l0.13 -6.96zm-0.13 7c-0.06,2.31 -0.13,4.61 -0.22,6.91l0.22 -6.91zm-0.22 6.98c-0.09,2.29 -0.18,4.57 -0.3,6.86l0.3 -6.86zm-1.15 20.73c-0.17,2.24 -0.35,4.47 -0.54,6.69l0.54 -6.69z"/>
    </g>
    <path class="fil2" d="M337.81 29.55l0.46 1.02 0.46 1.02 0.46 1.02 0.46 1.02 0.45 1.03 0.9 2.05 0.45 1.03 0.44 1.04 0.44 1.03 0.88 2.08 0.44 1.04 0.43 1.04 0.43 1.05 0.44 1.05 0.42 1.05 0.43 1.05 0.42 1.05 0.42 1.06 0.42 1.06 0.42 1.06 0.82 2.12 0.41 1.07 0.01 0.03 0.8 2.1 0.41 1.08 0.79 2.14 0.4 1.08 0.4 1.08 0.03 0.08 0.36 1 0.39 1.08 0.38 1.09 0.39 1.08 0.38 1.09 0.69 1.98 0.07 0.2 0.38 1.1 0.34 1.01 0.03 0.08 0.37 1.1 0.37 1.1 0.73 2.21 0.36 1.1 0.63 1.94 0.09 0.28 0.35 1.11 0.7 2.22 0.35 1.12 0.35 1.12 0.34 1.12 0.34 1.12 0.34 1.12 0.33 1.13 0.33 1.13 0.34 1.12 0.32 1.13 0.33 1.13 0.32 1.14 0.33 1.13 0.31 1.14c-0.59,8.76 -1.19,17.51 -1.68,26.27 -0.56,9.78 0.25,19.67 -0.8,29.37 -2,18.58 -5.08,37.03 -7.23,55.59 -0.36,3.19 1.71,6.68 2.65,10.03 3.5,-1.13 7.88,-1.31 10.3,-3.62 3.62,-3.46 6.53,-8.11 8.59,-12.78 1.74,-3.96 3.48,-7.93 5.21,-11.9l0.07 0.81 0.08 0.8 0.07 0.8 0.07 0.8 0 0.05 0.07 0.76 0.07 0.8 0.06 0.81 0.07 0.8 0.06 0.81 0.07 0.8 0.06 0.81 0.06 0.8 0.06 0.81 0.02 0.23 0.05 0.58 0.05 0.81 0.06 0.81 0.06 0.8 0.05 0.73 0 0.08 0.05 0.81 0.16 2.44 0.02 0.41 0.03 0.4 0.14 2.44 0.04 0.81 0.01 0.09 0.04 0.73 0.04 0.81 0.08 1.63 0.03 0.59 0.01 0.23 0.03 0.81 0.04 0.82 0.04 0.82 0.03 0.82 0.01 0.27 0.02 0.54 0.03 0.82 0.03 0.82 0.06 1.6 0 0.04 0.03 0.82 0.02 0.82 0.03 0.82 0.02 0.83 0.02 0.46 0.01 0.36 0.01 0.82 0.03 0.83 0.01 0.82 0.02 0.82 0 0.14 0.02 0.69 0.04 2.47 0.01 0.64 0 0.19 0.01 0.82 0.01 0.83 0.01 1.66 0.01 0.32 0 0.5 0.01 3.32c0,2.34 -0.02,4.69 -0.04,7.02l0 0.02c-0.03,2.32 -0.08,4.65 -0.13,6.97l0 0.03c-0.06,2.29 -0.13,4.58 -0.22,6.86l0 0.06 0 0.06c-0.09,2.29 -0.18,4.58 -0.3,6.87l0 0.07c-0.11,2.28 -0.24,4.55 -0.38,6.82l0 0.09c-0.14,2.26 -0.3,4.52 -0.46,6.77l-0.01 0.11c-0.17,2.24 -0.35,4.48 -0.54,6.72l-0.01 0.12c-0.59,6.76 -1.29,13.48 -2.12,20.13l-0.02 0.18c-0.55,4.41 -1.15,8.78 -1.8,13.14l-0.03 0.21c-0.65,4.34 -1.35,8.65 -2.1,12.94l0 0 -0.04 0.24c-0.35,2.02 -0.72,4.04 -1.09,6.04l-0.05 0.23 -0.05 0.26c-0.37,1.98 -0.75,3.96 -1.15,5.93l-0.05 0.28 -0.06 0.27c-8.05,5.87 -15.72,12.31 -23.48,18.57 -5.06,4.07 -9.24,4.07 -11.94,-1.76 -2.53,-5.46 -4.47,-11.58 -4.92,-17.54 -1.42,-18.75 -1.75,-37.59 -3.04,-56.35 -0.66,-9.72 -2.19,-19.4 -3.95,-28.99 -0.37,-1.98 -3.93,-5.13 -5.28,-4.8 -2.39,0.6 -4.74,3.15 -6.12,5.47 -1.18,1.97 -1.21,4.76 -1.34,7.21 -0.76,14.33 -1.27,28.68 -2.12,43 -0.34,5.7 -1.19,11.38 -2.16,17.01 -0.19,1.07 -2.06,1.86 -3.16,2.78 -0.79,-0.97 -1.82,-1.84 -2.31,-2.95 -0.53,-1.2 -0.54,-2.63 -0.78,-3.95 -3.6,-19.65 -7.04,-39.34 -10.92,-58.94 -1.03,-5.19 -2.84,-10.45 -5.46,-15 -1.39,-2.43 -5.32,-4.7 -8.02,-4.61 -1.7,0.05 -4.73,4.68 -4.61,7.12 0.42,8.19 1.79,16.34 3.15,24.45 2.81,16.64 5.97,33.23 8.67,49.89 0.38,2.34 -0.95,4.96 -1.5,7.45 -0.61,-0.04 -1.21,-0.08 -1.82,-0.12 -0.66,-1.32 -1.39,-2.6 -1.94,-3.95 -5.98,-14.72 -11.94,-29.43 -17.86,-44.17 -2.27,-5.68 -4.22,-11.5 -6.69,-17.09 -1.53,-3.47 -4.04,-6.31 -8.51,-4.91 -4.38,1.36 -4.98,4.89 -4.46,8.81 0.28,2.09 0.53,4.24 1.24,6.21 6.55,17.97 13.23,35.9 19.75,53.89 0.78,2.14 0.79,4.56 1.17,6.85 -2.5,-0.9 -5.56,-1.18 -7.36,-2.84 -3.51,-3.2 -6.39,-7.12 -9.4,-10.85 -6.03,-7.45 -11.78,-15.15 -18.1,-22.34 -1.5,-1.71 -4.83,-1.8 -7.32,-2.63 -0.83,2.67 -1.84,5.3 -2.4,8.02 -0.19,0.94 0.6,2.19 1.19,3.16 4.48,7.34 9.3,14.49 13.48,22 5.74,10.3 11.88,20.53 16.2,31.44 3.13,7.9 3.18,16.95 5.33,25.31 2.83,11.01 6.7,21.52 15.79,29.43 2.46,2.14 4.17,6.08 4.63,9.41 2.73,19.67 5.35,39.35 7.93,59.04l-65.13 0 -0.02 -0.65c-0.58,-14.32 -2.27,-28.59 -3.64,-42.86 -0.5,-5.12 -3.15,-7.93 -8.31,-10.06 -6.87,-2.84 -13.91,-5.94 -20.16,-9.99l-0.12 -0.96 -0.12 -0.96 -0.07 -0.54 -0.05 -0.43 -0.12 -0.96 -0.11 -0.97 -0.11 -0.97 -0.11 -0.97 -0.11 -0.96 -0.1 -0.97 -0.21 -1.94 -0.1 -0.97 -0.1 -0.98 -0.1 -0.97 -0.01 -0.08 -0.08 -0.89 -0.21 -2.18 -0.07 -0.74 -0.08 -0.98 -0.09 -0.98 -0.08 -0.97 -0.13 -1.56 -0.03 -0.4 -0.08 -0.98 -0.08 -0.98 -0.05 -0.59 -0.02 -0.39 -0.07 -0.98 -0.07 -0.98 -0.07 -0.98 -0.03 -0.44 -0.04 -0.55 -0.06 -0.98 -0.07 -0.98 -0.06 -0.99 -0.02 -0.27 -0.04 -0.72 -0.05 -0.98 -0.06 -0.99 -0.05 -0.99 -0.01 -0.11 -0.05 -0.87 -0.14 -2.93 0 -0.04 -0.15 -3.64 -0.01 -0.13 0 -0.2 -0.07 -1.99 -0.04 -0.99 -0.02 -0.64 -0.01 -0.35 -0.02 -1 -0.05 -1.99 -0.02 -0.48 -0.01 -0.52 -0.05 -3 -0.01 -0.31 -0.01 -0.68 -0.02 -2.01 -0.01 -0.99 0 -0.17 -0.01 -0.84 -0.01 -3.01c0,-2.12 0.02,-4.23 0.04,-6.34l0.01 -0.38 0 -0.08 0.01 -0.45c0.02,-1.81 0.06,-3.61 0.1,-5.42l0.01 -0.45 0.02 -0.45 0.01 -0.45 0.01 -0.45c0.04,-1.35 0.09,-2.7 0.13,-4.05l0.02 -0.45 0.09 -2.24 0.02 -0.45 0.02 -0.45 0.02 -0.45 0.02 -0.44 0.02 -0.45 0.02 -0.45 0.02 -0.45 0.03 -0.44 0.02 -0.45 0.14 -2.69 0.02 -0.44 0.03 -0.45c2.68,0.15 5.94,-0.78 7.82,-2.26 3.36,-2.66 6.14,-6.74 7.85,-10.79 5.65,-13.41 4.21,-27.56 1.75,-41.24 -1.75,-9.74 -3.59,-19.47 -5.49,-29.18l0.34 -1.45 0.03 -0.1 1.01 -4.21 0.35 -1.43 0.36 -1.43 0.73 -2.85 0.37 -1.43 0.38 -1.42c0.36,-1.37 0.73,-2.75 1.11,-4.12l0.04 -0.13 0.39 -1.41 0.04 -0.16 1.16 -4.07 0.41 -1.4 0.41 -1.4 0.83 -2.8 0.43 -1.4 0.43 -1.39 1.29 -4.13 0.01 -0.03 0.44 -1.38 0.06 -0.18 1.3 -3.96 0.46 -1.37 0.46 -1.37 1.33 -3.86 0.09 -0.24 0.48 -1.36 0.03 -0.1 0.94 -2.61 0.49 -1.36 0.49 -1.35 0.14 -0.38 1.21 -3.23 0.16 -0.43 0.51 -1.34 0.19 -0.49c0.45,-1.17 0.9,-2.35 1.36,-3.52l0.53 -1.33 0.53 -1.32 1.25 -3.11 0.97 -2.34 1.03 -2.47 0.56 -1.31 0.56 -1.3 0.56 -1.31 1.05 -2.4 1.26 -2.82 1.1 -2.45 0.05 -0.1 2.39 7.25c4.3,12.96 8.54,25.98 13.67,38.61 1.74,4.28 5.74,7.97 9.47,10.96 3.2,2.56 6.41,1.25 6.82,-3.42 0.3,-3.49 0.44,-7.07 0.08,-10.55 -1.74,-16.97 -3.88,-33.9 -5.49,-50.87 -1.17,-12.32 -2.29,-24.64 -3.16,-36.98l0.01 -0.03 1.52 -2.49 0.08 -0.12 0.55 -0.88 0.97 -1.57 1.21 -1.93 0.55 -0.86 1.11 -1.74 0.56 -0.86 1.36 -2.08 0.89 -1.35 0.56 -0.86 0.14 -0.19 1.49 -2.24 1.92 -2.82 1.23 -1.77 2.21 -3.15 1.24 -1.73c0.73,-1.03 1.48,-2.06 2.22,-3.08l1.02 -1.38 2.34 -3.15 1.25 -1.65 2.26 -2.93 1.09 -1.41c0.84,-1.08 1.7,-2.16 2.56,-3.23l1.04 -1.3c0.88,-1.09 1.77,-2.18 2.66,-3.26l1.04 -1.26c0.97,-1.16 1.94,-2.32 2.91,-3.46l0.22 2.39c1.95,21.57 3.78,43.14 5.68,64.71 1.67,18.86 2.99,37.77 5.25,56.56 0.83,6.85 3.59,13.57 6.23,20.02 0.79,1.95 4.13,2.82 6.29,4.18 1.13,-2.06 3.01,-4.05 3.24,-6.21 1.05,-9.93 1.51,-19.93 2.44,-29.87 1.35,-14.49 2.77,-28.98 4.46,-43.44 2.52,-21.66 5.24,-43.31 7.97,-64.94 1.52,-11.94 2.55,-24 5.1,-35.72 0.86,-3.98 2.45,-6.91 4.64,-8.92zm21.81 370.64l-0.18 0.6 -0.92 2.98 -0.19 0.6 -0.19 0.59 -0.19 0.6 -0.18 0.59 -0.19 0.59 -0.77 2.37 -0.19 0.59 -0.78 2.36 -0.19 0.59 -0.2 0.59 -0.57 1.69c-0.52,1.52 -1.04,3.04 -1.57,4.54l-0.27 0.76 0 0.02 -0.21 0.58c-0.55,1.55 -1.1,3.09 -1.66,4.63l-0.14 0.39 -0.07 0.18 -0.01 0.02c-0.67,1.83 -1.36,3.66 -2.05,5.48l-0.05 0.13 -0.04 0.1 -0.02 0.06c-0.71,1.85 -1.43,3.69 -2.16,5.52l-0.03 0.08 0 0.01c-0.83,-5.15 -1.61,-10.31 -2.35,-15.47 -0.28,-1.95 0.33,-5.06 1.68,-6.03 5.91,-4.25 10.11,-9.75 13.69,-15.74z"/>
   </g>
   <g>
   </g>
   <g style="clip-path:url(#id0)">
    <g>
     <ellipse class="fil1" cx="99.34" cy="245.71" rx="281.69" ry="396.9"/>
     <ellipse class="fil0" cx="528.73" cy="369.38" rx="346.02" ry="416.06"/>
     <path class="fil2" d="M334.86 23.21c29.99,63.09 47.49,138.95 47.49,220.58 0,150 -59.07,280.56 -146.22,348.04 -34.23,-64.54 -54.08,-141.19 -54.08,-223.42 0,-143.74 60.63,-270.45 152.81,-345.2z"/>
    </g>
   </g>
   <path class="fil3" d="M186 431.4c-1.96,-1.26 -3.83,-2.62 -5.6,-4.09 -13.76,-11.48 -26.58,-24.2 -39.18,-37.01 -19.82,-20.13 -42.53,-34.97 -69.69,-42.67 -9.62,-2.73 -19.2,-5.88 -28.38,-9.83 -9.03,-3.89 -11.23,-10.26 -8.82,-19.91 2.57,-10.31 8.86,-17.17 19.06,-18.81 7.78,-1.26 16.06,-1.88 23.76,-0.58 29.33,4.93 56.57,16.1 82.62,30.48 6.81,3.76 13.72,7.54 20.98,10.21 0.63,0.23 1.36,0.36 2.13,0.4 -0.54,9.52 -0.83,19.13 -0.83,28.82 0,21.42 1.35,42.45 3.95,62.99zm8.81 -175.28c-3.75,-19.21 -7.73,-38.37 -11.76,-57.52 -7.18,-34.08 -15.23,-67.98 -21.93,-102.15 -1.96,-9.99 -1.14,-20.67 -0.62,-30.99 0.31,-5.97 3.46,-11.42 9.95,-12.83 6.73,-1.47 12.2,1.46 15.73,7.27 2.9,4.74 5.72,9.71 7.47,14.95 10.44,31.2 20.56,62.5 30.87,93.73 -12.52,27.45 -22.55,56.77 -29.71,87.54zm53.49 -132.55c-0.34,-4.69 -0.63,-9.38 -0.88,-14.06 -1.4,-26.21 -2.65,-52.44 -3.03,-78.67 -0.11,-6.98 2.49,-14.28 5.11,-20.92 2.47,-6.27 8.15,-8.99 14.99,-8.86 6.49,0.12 10.36,4.13 12.43,9.56 2.35,6.15 4.4,12.61 5.25,19.1 1.79,13.64 2.9,27.37 4.13,41.09 -13.85,16.26 -26.57,33.91 -38,52.76z"/>
   <g>
   </g>
   <g style="clip-path:url(#id1)">
    <g>
     <ellipse class="fil1" cx="99.34" cy="245.71" rx="281.69" ry="396.9"/>
     <ellipse class="fil0" cx="528.73" cy="369.38" rx="346.02" ry="416.06"/>
     <path class="fil2" d="M334.86 23.21c29.99,63.09 47.49,138.95 47.49,220.58 0,150 -59.07,280.56 -146.22,348.04 -34.23,-64.54 -54.08,-141.19 -54.08,-223.42 0,-143.74 60.63,-270.45 152.81,-345.2z"/>
    </g>
   </g>
   <path class="fil3" d="M346.6 437.43c-0.83,-5.15 -1.61,-10.31 -2.35,-15.47 -0.28,-1.95 0.33,-5.06 1.68,-6.03 5.91,-4.25 10.11,-9.75 13.69,-15.74 -3.89,12.77 -8.24,25.2 -13.02,37.24zm25.1 -85.2c-8.05,5.87 -15.72,12.31 -23.48,18.57 -5.06,4.07 -9.24,4.07 -11.94,-1.76 -2.53,-5.46 -4.47,-11.58 -4.92,-17.54 -1.42,-18.75 -1.75,-37.59 -3.04,-56.35 -0.66,-9.72 -2.19,-19.4 -3.95,-28.99 -0.37,-1.98 -3.93,-5.13 -5.28,-4.8 -2.39,0.6 -4.74,3.15 -6.12,5.47 -1.18,1.97 -1.21,4.76 -1.34,7.21 -0.76,14.33 -1.27,28.68 -2.12,43 -0.34,5.7 -1.19,11.38 -2.16,17.01 -0.19,1.07 -2.06,1.86 -3.16,2.78 -0.79,-0.97 -1.82,-1.84 -2.31,-2.95 -0.53,-1.2 -0.54,-2.63 -0.78,-3.95 -3.6,-19.65 -7.04,-39.34 -10.92,-58.94 -1.03,-5.19 -2.84,-10.45 -5.46,-15 -1.39,-2.43 -5.32,-4.7 -8.02,-4.61 -1.7,0.05 -4.73,4.68 -4.61,7.12 0.42,8.19 1.79,16.34 3.15,24.45 2.81,16.64 5.97,33.23 8.67,49.89 0.38,2.34 -0.95,4.96 -1.5,7.45 -0.61,-0.04 -1.21,-0.08 -1.82,-0.12 -0.66,-1.32 -1.39,-2.6 -1.94,-3.95 -5.98,-14.72 -11.94,-29.43 -17.86,-44.17 -2.27,-5.68 -4.22,-11.5 -6.69,-17.09 -1.53,-3.47 -4.04,-6.31 -8.51,-4.91 -4.38,1.36 -4.98,4.89 -4.46,8.81 0.28,2.09 0.53,4.24 1.24,6.21 6.55,17.97 13.23,35.9 19.75,53.89 0.78,2.14 0.79,4.56 1.17,6.85 -2.5,-0.9 -5.56,-1.18 -7.36,-2.84 -3.51,-3.2 -6.39,-7.12 -9.4,-10.85 -6.03,-7.45 -11.78,-15.15 -18.1,-22.34 -1.5,-1.71 -4.83,-1.8 -7.32,-2.63 -0.83,2.67 -1.84,5.3 -2.4,8.02 -0.19,0.94 0.6,2.19 1.19,3.16 4.48,7.34 9.3,14.49 13.48,22 5.74,10.3 11.88,20.53 16.2,31.44 3.13,7.9 3.18,16.95 5.33,25.31 2.83,11.01 6.7,21.52 15.79,29.43 2.46,2.14 4.17,6.08 4.63,9.41 2.73,19.67 5.35,39.35 7.93,59.04l-65.13 0 -0.02 -0.65c-0.58,-14.32 -2.27,-28.59 -3.64,-42.86 -0.5,-5.12 -3.15,-7.93 -8.31,-10.06 -6.87,-2.84 -13.91,-5.94 -20.16,-9.99 -2.6,-20.54 -3.95,-41.57 -3.95,-62.99 0,-9.69 0.29,-19.3 0.83,-28.82 2.68,0.15 5.94,-0.78 7.82,-2.26 3.36,-2.66 6.14,-6.74 7.85,-10.79 5.65,-13.41 4.21,-27.56 1.75,-41.24 -1.75,-9.74 -3.59,-19.47 -5.49,-29.18 7.16,-30.77 17.18,-60.1 29.71,-87.55l2.39 7.25c4.3,12.96 8.54,25.98 13.67,38.61 1.74,4.28 5.74,7.97 9.47,10.96 3.2,2.56 6.41,1.25 6.82,-3.42 0.3,-3.49 0.44,-7.07 0.08,-10.55 -1.74,-16.97 -3.88,-33.9 -5.49,-50.87 -1.17,-12.32 -2.29,-24.64 -3.16,-36.98 11.43,-18.85 24.14,-36.51 37.99,-52.78l0.22 2.39c1.95,21.57 3.78,43.14 5.68,64.71 1.67,18.86 2.99,37.77 5.25,56.56 0.83,6.85 3.59,13.57 6.23,20.02 0.79,1.95 4.13,2.82 6.29,4.18 1.13,-2.06 3.01,-4.05 3.24,-6.21 1.05,-9.93 1.51,-19.93 2.44,-29.87 1.35,-14.49 2.77,-28.98 4.46,-43.44 2.52,-21.66 5.24,-43.31 7.97,-64.94 1.52,-11.94 2.55,-24 5.1,-35.72 0.86,-3.98 2.45,-6.91 4.64,-8.92 9.88,21.67 18.31,44.78 25.08,69.05 -0.59,8.76 -1.19,17.51 -1.68,26.27 -0.56,9.78 0.25,19.67 -0.8,29.37 -2,18.58 -5.08,37.03 -7.23,55.59 -0.36,3.19 1.71,6.68 2.65,10.03 3.5,-1.13 7.88,-1.31 10.3,-3.62 3.62,-3.46 6.53,-8.11 8.59,-12.78 1.74,-3.96 3.48,-7.93 5.21,-11.9 1.59,17.1 2.42,34.53 2.42,52.23 0,37.6 -3.71,73.98 -10.65,108.44z"/>
  </g>
 </g>
</svg>
