<?xml version="1.0" encoding="UTF-8"?>
<!DOCTYPE svg PUBLIC "-//W3C//DTD SVG 1.1//EN" "http://www.w3.org/Graphics/SVG/1.1/DTD/svg11.dtd">
<!-- Creator: CorelDRAW 2017 -->
<svg xmlns="http://www.w3.org/2000/svg" xml:space="preserve" width="2737px" height="939px" version="1.1" style="shape-rendering:geometricPrecision; text-rendering:geometricPrecision; image-rendering:optimizeQuality; fill-rule:evenodd; clip-rule:evenodd"
viewBox="0 0 2737 938.99"
 xmlns:xlink="http://www.w3.org/1999/xlink">
 <defs>
  <style type="text/css">
   <![CDATA[
    .fil4 {fill:none}
    .fil5 {fill:#F16136}
    .fil1 {fill:#80CCEC}
    .fil3 {fill:#2AB6EA}
    .fil2 {fill:#00ACE6}
    .fil0 {fill:#F16136;fill-rule:nonzero}
   ]]>
  </style>
   <clipPath id="id0">
    <path d="M313.79 807.64c-3.6,-2.33 -7.06,-4.84 -10.32,-7.55 -25.37,-21.16 -49,-44.61 -72.24,-68.23 -36.53,-37.12 -78.41,-64.47 -128.49,-78.68 -17.73,-5.04 -35.4,-10.83 -52.33,-18.12 -16.65,-7.17 -20.7,-18.92 -16.26,-36.71 4.75,-19.01 16.35,-31.65 35.14,-34.69 14.34,-2.32 29.62,-3.45 43.81,-1.06 54.08,9.09 104.31,29.68 152.33,56.2 12.57,6.94 25.3,13.91 38.69,18.82 1.16,0.43 2.5,0.67 3.92,0.74 -1,17.56 -1.52,35.28 -1.52,53.14 0,39.49 2.49,78.27 7.27,116.14zm16.26 -323.18c-6.92,-35.41 -14.26,-70.75 -21.7,-106.05 -13.23,-62.84 -28.07,-125.34 -40.43,-188.35 -3.61,-18.42 -2.1,-38.11 -1.14,-57.12 0.56,-11.02 6.39,-21.06 18.34,-23.67 12.42,-2.71 22.51,2.7 29.02,13.4 5.33,8.75 10.53,17.91 13.77,27.58 19.25,57.51 37.91,115.22 56.91,172.81 -23.09,50.61 -41.58,104.67 -54.77,161.4zm98.61 -244.39c-0.61,-8.64 -1.16,-17.28 -1.62,-25.93 -2.58,-48.32 -4.88,-96.68 -5.59,-145.05 -0.19,-12.86 4.6,-26.32 9.43,-38.57 4.55,-11.55 15.03,-16.57 27.63,-16.33 11.98,0.22 19.11,7.62 22.93,17.63 4.32,11.33 8.1,23.24 9.67,35.22 3.3,25.15 5.35,50.47 7.61,75.75 -25.53,29.99 -48.99,62.52 -70.06,97.28z"/>
   </clipPath>
   <clipPath id="id1">
    <path d="M609.9 818.76c-1.53,-9.49 -2.96,-19.01 -4.33,-28.53 -0.51,-3.59 0.61,-9.33 3.1,-11.12 10.9,-7.83 18.65,-17.98 25.24,-29.02 -7.17,23.55 -15.18,46.47 -24.01,68.67zm46.29 -157.09c-14.84,10.82 -28.99,22.69 -43.31,34.23 -9.32,7.51 -17.02,7.51 -22,-3.24 -4.67,-10.06 -8.24,-21.35 -9.07,-32.33 -2.62,-34.59 -3.24,-69.31 -5.61,-103.91 -1.22,-17.91 -4.03,-35.77 -7.28,-53.44 -0.67,-3.66 -7.24,-9.47 -9.73,-8.85 -4.41,1.1 -8.74,5.81 -11.3,10.08 -2.17,3.63 -2.23,8.77 -2.46,13.28 -1.4,26.43 -2.35,52.88 -3.92,79.3 -0.62,10.5 -2.18,20.98 -3.98,31.35 -0.34,1.99 -3.79,3.43 -5.81,5.13 -1.46,-1.8 -3.37,-3.4 -4.28,-5.45 -0.97,-2.2 -0.98,-4.83 -1.43,-7.27 -6.64,-36.24 -12.97,-72.53 -20.13,-108.67 -1.9,-9.56 -5.24,-19.26 -10.07,-27.66 -2.57,-4.48 -9.8,-8.66 -14.79,-8.5 -3.12,0.09 -8.71,8.63 -8.48,13.14 0.76,15.08 3.28,30.12 5.8,45.07 5.17,30.69 10.99,61.26 15.99,91.98 0.7,4.31 -1.77,9.14 -2.77,13.73 -1.12,-0.07 -2.24,-0.14 -3.37,-0.21 -1.2,-2.43 -2.56,-4.79 -3.58,-7.29 -11,-27.13 -22.01,-54.26 -32.91,-81.43 -4.2,-10.47 -7.8,-21.2 -12.34,-31.52 -2.83,-6.39 -7.44,-11.63 -15.7,-9.05 -8.08,2.52 -9.18,9.03 -8.22,16.24 0.52,3.86 0.98,7.84 2.29,11.46 12.07,33.14 24.39,66.19 36.41,99.35 1.43,3.95 1.47,8.41 2.16,12.63 -4.6,-1.65 -10.24,-2.17 -13.58,-5.22 -6.47,-5.91 -11.77,-13.14 -17.33,-20.01 -11.11,-13.74 -21.71,-27.94 -33.37,-41.2 -2.76,-3.13 -8.9,-3.3 -13.49,-4.84 -1.53,4.91 -3.4,9.76 -4.42,14.78 -0.35,1.73 1.11,4.05 2.2,5.83 8.26,13.53 17.14,26.72 24.85,40.56 10.58,19 21.9,37.86 29.87,57.98 5.77,14.56 5.86,31.25 9.82,46.65 5.21,20.3 12.36,39.69 29.11,54.26 4.53,3.95 7.69,11.22 8.54,17.37 5.04,36.26 9.86,72.54 14.62,108.84l-120.08 0 -0.04 -1.19c-1.07,-26.39 -4.18,-52.71 -6.72,-79.03 -0.91,-9.44 -5.8,-14.62 -15.32,-18.55 -12.65,-5.23 -25.65,-10.94 -37.17,-18.41 -4.78,-37.87 -7.27,-76.65 -7.27,-116.14 0,-17.86 0.52,-35.58 1.52,-53.14 4.95,0.27 10.95,-1.43 14.42,-4.17 6.2,-4.91 11.32,-12.42 14.47,-19.88 10.42,-24.73 7.77,-50.82 3.23,-76.05 -3.23,-17.96 -6.62,-35.89 -10.11,-53.8 13.19,-56.73 31.67,-110.81 54.77,-161.42l4.41 13.36c7.92,23.91 15.74,47.91 25.21,71.2 3.2,7.89 10.58,14.7 17.45,20.2 5.89,4.71 11.83,2.3 12.57,-6.3 0.56,-6.45 0.81,-13.04 0.16,-19.46 -3.22,-31.28 -7.16,-62.49 -10.13,-93.79 -2.15,-22.71 -4.22,-45.43 -5.83,-68.18 21.07,-34.76 44.52,-67.31 70.06,-97.32l0.39 4.42c3.6,39.76 6.97,79.53 10.48,119.3 3.07,34.78 5.5,69.64 9.68,104.29 1.52,12.63 6.62,25.01 11.48,36.92 1.46,3.58 7.61,5.19 11.61,7.7 2.07,-3.81 5.54,-7.47 5.96,-11.46 1.95,-18.31 2.78,-36.74 4.49,-55.07 2.5,-26.72 5.13,-53.43 8.23,-80.08 4.64,-39.95 9.66,-79.86 14.71,-119.75 2.79,-22.01 4.7,-44.25 9.39,-65.85 1.6,-7.34 4.52,-12.74 8.56,-16.44 18.21,39.94 33.75,82.55 46.25,127.3 -1.11,16.14 -2.2,32.29 -3.12,48.44 -1.01,18.03 0.47,36.27 -1.46,54.15 -3.69,34.25 -9.38,68.27 -13.32,102.49 -0.68,5.89 3.14,12.33 4.88,18.5 6.45,-2.09 14.53,-2.42 18.98,-6.67 6.67,-6.39 12.04,-14.96 15.83,-23.56 3.22,-7.31 6.43,-14.62 9.62,-21.94 2.94,31.51 4.46,63.65 4.46,96.29 0,69.32 -6.84,136.4 -19.63,199.94z"/>
   </clipPath>
 </defs>
 <g id="Camada_x0020_1">
  <metadata id="CorelCorpID_0Corel-Layer"/>
  <path class="fil0" d="M1117.11 650.74l-200.14 0c2.94,22.09 11.68,39.91 26.05,53.6 14.45,13.7 32.85,20.5 55.28,20.5 32.6,0 58.48,-13.11 77.47,-39.32l41.34 18.23c-13.44,20.75 -30.92,36.22 -52.43,46.3 -21.51,10.08 -43.94,15.12 -67.47,15.12 -36.38,0 -67.55,-11.34 -93.43,-34.11 -25.8,-22.77 -38.74,-53.44 -38.74,-92.09 0,-36.55 12.61,-66.72 37.81,-90.41 25.21,-23.61 54.11,-35.46 86.72,-35.46 32.01,0 61,11.51 87.04,34.62 26.05,23.02 39.49,57.39 40.5,103.02zm-48.4 -33.78c-3.27,-16.81 -11.93,-32.02 -26.04,-45.63 -14.03,-13.61 -31.34,-20.41 -51.76,-20.41 -18.65,0 -34.62,6.13 -47.89,18.4 -13.28,12.34 -21.35,28.14 -24.28,47.64l149.97 0zm381.21 99.31l0 41.84 -89.73 0 0 -34.86c-23.28,25.96 -51.68,38.9 -85.2,38.9 -31,0 -58.31,-10.59 -81.75,-31.77 -23.45,-21.17 -35.21,-51.33 -35.21,-90.4 0,-39.24 12.1,-70.24 36.21,-92.85 24.12,-22.68 51.34,-34.03 81.76,-34.03 32.18,0 60.24,12.77 84.19,38.4l0 -93.85 -45.88 0 0 -41.84 92.77 0 0 300.46 42.84 0zm-241.98 -77.63c0,26.21 7.39,46.37 22.26,60.49 14.88,14.12 32.69,21.17 53.36,21.17 20.08,0 37.81,-7.39 53.35,-22.26 15.55,-14.87 23.28,-35.38 23.28,-61.59 0,-26.47 -7.9,-46.38 -23.78,-59.82 -15.88,-13.45 -33.61,-20.17 -53.35,-20.17 -21.18,0 -38.99,7.9 -53.44,23.78 -14.45,15.8 -21.68,35.29 -21.68,58.4zm522.29 77.63l0 41.84 -88.23 0 0 -27.3c-27.39,20.92 -53.6,31.34 -78.73,31.34 -15.88,0 -29.07,-3.53 -39.49,-10.5 -10.42,-6.98 -17.31,-15.97 -20.75,-27.06 -3.45,-11.09 -5.21,-28.91 -5.21,-53.52l0 -109.57 -33.78 0 0 -41.84 80.66 0 0 145.27c0,17.56 0.51,29.41 1.51,35.46 0.93,6.05 3.79,11.09 8.58,15.04 4.7,3.95 10.75,5.88 17.89,5.88 21.68,0 44.78,-10.33 69.32,-31l0 -128.81 -42.35 0 0 -41.84 89.23 0 0 196.61 41.35 0zm248.03 -196.61l0 90.24 -41.84 0c-2.1,-17.23 -9.16,-30.42 -21.01,-39.66 -11.85,-9.16 -25.63,-13.78 -41.34,-13.78 -21,0 -37.98,7.48 -51.09,22.35 -13.1,14.87 -19.65,34.45 -19.65,58.65 0,22.51 6.21,42.34 18.65,59.57 12.43,17.23 30.41,25.79 54.02,25.79 32.69,0 56.47,-15.62 71.17,-46.88l38.65 18.23c-21.34,47.31 -58.65,71 -111.92,71 -37.72,0 -67.38,-12.85 -89.06,-38.65 -21.59,-25.79 -32.43,-55.54 -32.43,-89.23 0,-35.96 11.84,-65.71 35.45,-89.06 23.61,-23.45 50.84,-35.13 81.68,-35.13 26.38,0 48.64,7.82 66.88,23.36l0 -16.8 41.84 0zm280.81 196.61l0 41.84 -82.18 0 0 -29.07c-22.6,22.1 -47.9,33.11 -75.79,33.11 -21.68,0 -40.5,-7.06 -56.46,-21.18 -16.05,-14.11 -24.03,-32.09 -24.03,-54.11 0,-22.1 8.48,-40.5 25.45,-55.03 17.06,-14.62 37.57,-21.93 61.51,-21.93 22.35,0 43.94,6.72 64.78,20.16l0 -23.69c0,-12.27 -1.17,-21.6 -3.44,-28.23 -2.35,-6.56 -7.73,-12.52 -16.22,-17.81 -8.4,-5.3 -19.49,-7.9 -33.19,-7.9 -23.53,0 -40.5,9.41 -51.08,28.23l-44.79 -11.85c19.92,-37.14 54.28,-55.71 103.1,-55.71 17.89,0 33.44,2.44 46.46,7.23 13.11,4.87 22.86,11.09 29.24,18.73 6.47,7.65 10.76,15.89 12.94,24.71 2.27,8.82 3.36,22.94 3.36,42.35l0 110.15 40.34 0zm-86.72 -46.46c-20.16,-15.72 -40.67,-23.62 -61.33,-23.62 -12.95,0 -23.78,3.78 -32.52,11.27 -8.65,7.56 -13.03,17.22 -13.03,29.15 0,11.17 3.79,20.42 11.43,27.98 7.65,7.48 18.07,11.26 31.17,11.26 22.69,0 44.12,-9.49 64.28,-28.4l0 -27.64z"/>
  <path class="fil1" d="M609.9 818.76c8.82,-22.2 16.84,-45.12 24.01,-68.67 2.1,-3.5 4.08,-7.09 6,-10.72 11.58,-21.88 25.41,-41.74 47.22,-54.79 5.45,-3.27 11.53,-6.04 15.85,-10.47 3.72,-3.82 8.58,-11 7.2,-14.33 -2.3,-5.59 -9.1,-12.93 -14.12,-13.02 -9.66,-0.17 -20.94,1.91 -28.8,7.17 -3.74,2.5 -7.43,5.09 -11.08,7.75 12.79,-63.55 19.64,-130.63 19.64,-199.95 0,-32.64 -1.52,-64.78 -4.46,-96.3 16.02,-36.79 31.68,-73.75 47.49,-110.65 6.76,-15.79 12.65,-32.03 20.42,-47.29 6.04,-11.88 16.56,-15.62 27.66,-12.7 10.95,2.89 17.66,11.33 17.44,25.05 -0.22,13.73 -0.12,28.04 -3.78,41.04 -10.03,35.63 -22.28,70.61 -33.07,106.03 -16.99,55.77 -35.72,110.58 -27.34,171.43 5.88,42.73 4.98,86.58 5,129.93 0.02,39.63 -8.5,77.38 -30.97,111.22 -6.28,9.45 -11.37,21.76 -11.63,32.89 -0.85,37.45 0.49,74.95 0.94,112.44l-53.82 0c-4.8,-24.57 -9.57,-49.13 -14.18,-73.73 -2.02,-10.74 -3.88,-21.53 -5.62,-32.33zm30.05 -624.72c-12.5,-44.76 -28.03,-87.37 -46.25,-127.31 5.24,-4.83 12.36,-6.8 20.89,-6.5 13.65,0.47 23.67,8.77 26.63,25.05 2.39,13.08 3.6,26.7 2.98,39.97 -1.1,22.95 -2.68,45.87 -4.25,68.79z"/>
  <g id="_761291584">
   <path class="fil2" d="M498.72 142.79c-11.89,13.96 -23.34,28.47 -34.3,43.51 10.96,-15.04 22.41,-29.57 34.3,-43.55l0 0.04zm-34.51 43.8c-6.2,8.52 -12.24,17.21 -18.13,26.06 5.89,-8.85 11.93,-17.54 18.13,-26.06zm-18.26 26.25c-1.88,2.83 -3.75,5.68 -5.6,8.54 1.85,-2.86 3.72,-5.71 5.6,-8.54zm-6.22 9.5c-1.71,2.66 -3.4,5.33 -5.08,8.01 1.68,-2.68 3.37,-5.35 5.08,-8.01zm-5.64 8.9c-1.74,2.78 -3.46,5.58 -5.17,8.39 1.71,-2.81 3.43,-5.61 5.17,-8.39zm-49.27 91.82l-1.44 3.16 1.44 -3.18 0 0.02zm-2.49 5.49c-1.16,2.6 -2.31,5.2 -3.45,7.82 1.14,-2.62 2.28,-5.22 3.45,-7.82zm-4.7 10.71c-1.05,2.43 -2.09,4.87 -3.12,7.32 1.03,-2.45 2.07,-4.89 3.12,-7.32zm-70.81 328.88c-0.09,3.33 -0.15,6.66 -0.2,9.99 0.05,-3.33 0.11,-6.66 0.2,-9.99zm-0.22 11.16c-0.05,4.06 -0.08,8.12 -0.08,12.2 0,-4.08 0.03,-8.14 0.08,-12.2z"/>
   <g>
    <path class="fil1" d="M610.31 817.72c1.23,-3.1 2.44,-6.21 3.64,-9.34 -1.2,3.13 -2.41,6.25 -3.64,9.34zm4.07 -10.47c1.21,-3.16 2.38,-6.32 3.56,-9.51 -1.18,3.19 -2.36,6.36 -3.56,9.51zm3.95 -10.57c1.04,-2.83 2.05,-5.68 3.06,-8.53 -1.01,2.86 -2.02,5.7 -3.06,8.53zm4.12 -11.52l2.68 -7.77c-0.88,2.6 -1.78,5.19 -2.68,7.77zm33.73 -123.48c0.8,-3.97 1.59,-7.96 2.34,-11.96 -0.75,4 -1.53,7.99 -2.33,11.95l-0.01 0.01zm2.47 -12.65c0.71,-3.77 1.39,-7.55 2.05,-11.35 -0.66,3.8 -1.35,7.58 -2.05,11.35zm2.14 -11.87c1.38,-7.88 2.67,-15.81 3.86,-23.79 -1.19,7.98 -2.48,15.91 -3.86,23.79zm3.98 -24.59c2.99,-20.12 5.4,-40.55 7.19,-61.25 -1.79,20.7 -4.2,41.13 -7.19,61.25zm8.23 -74.1c0.61,-8.36 1.13,-16.75 1.55,-25.19 -0.42,8.44 -0.94,16.83 -1.55,25.19zm2.82 -76.74c0,4.32 -0.03,8.63 -0.08,12.93l0.08 -12.93zm-0.08 12.97c-0.05,4.29 -0.14,8.57 -0.24,12.84l0.24 -12.84zm-0.24 12.92c-0.11,4.25 -0.24,8.5 -0.39,12.74l0.39 -12.74zm-0.4 12.86c-0.16,4.23 -0.34,8.44 -0.55,12.65l0.55 -12.65zm-2.12 38.22c-0.31,4.13 -0.64,8.25 -0.99,12.35l0.99 -12.35z"/>
   </g>
   <path class="fil3" d="M593.7 66.73l0.85 1.87 0.85 1.88 0.84 1.88 0.84 1.89 0.84 1.89 1.66 3.79 0.82 1.9 0.82 1.9 0.82 1.91 1.62 3.83 0.81 1.92 0.8 1.93 0.79 1.92 0.79 1.94 0.79 1.93 0.79 1.94 0.77 1.94 0.78 1.95 0.77 1.95 0.77 1.95 1.52 3.92 0.76 1.97 0.02 0.05 1.47 3.89 0.75 1.97 1.47 3.96 0.73 1.99 0.73 1.98 0.06 0.16 0.66 1.84 0.72 2 0.71 2 0.71 2 0.71 2 1.26 3.65 0.14 0.38 0.69 2.02 0.64 1.87 0.05 0.15 0.68 2.02 0.68 2.03 1.35 4.06 0.66 2.04 1.16 3.58 0.16 0.51 0.66 2.05 1.29 4.1 0.64 2.06 0.64 2.06 0.63 2.06 0.63 2.07 0.62 2.07 0.62 2.08 0.61 2.07 0.61 2.08 0.61 2.09 0.6 2.08 0.6 2.1 0.59 2.09 0.59 2.09c-1.11,16.14 -2.2,32.29 -3.12,48.44 -1.01,18.03 0.47,36.27 -1.46,54.15 -3.69,34.25 -9.38,68.27 -13.32,102.49 -0.68,5.89 3.14,12.33 4.88,18.5 6.45,-2.09 14.53,-2.42 18.98,-6.67 6.67,-6.39 12.04,-14.96 15.83,-23.56 3.22,-7.31 6.43,-14.62 9.62,-21.94l0.13 1.47 0.14 1.48 0.13 1.48 0.13 1.48 0.01 0.09 0.12 1.39 0.13 1.48 0.12 1.49 0.12 1.48 0.12 1.49 0.12 1.48 0.12 1.49 0.11 1.49 0.11 1.49 0.03 0.41 0.08 1.07 0.11 1.49 0.1 1.5 0.1 1.49 0.1 1.33 0.01 0.16 0.1 1.49 0.28 4.49 0.05 0.75 0.04 0.75 0.26 4.49 0.08 1.5 0.01 0.18 0.07 1.33 0.08 1.5 0.15 3.01 0.05 1.08 0.02 0.42 0.07 1.5 0.07 1.51 0.06 1.51 0.06 1.51 0.03 0.5 0.03 1 0.06 1.52 0.06 1.5 0.1 2.95 0 0.08 0.05 1.51 0.05 1.52 0.05 1.51 0.04 1.51 0.02 0.85 0.02 0.67 0.04 1.52 0.03 1.52 0.04 1.51 0.03 1.52 0.01 0.26 0.02 1.26 0.08 4.56 0.01 1.19 0.01 0.34 0.01 1.52 0.02 1.53 0.03 3.05 0.01 0.59 0 0.93 0.02 6.12c0,4.32 -0.03,8.64 -0.08,12.94l0 0.03c-0.05,4.29 -0.14,8.58 -0.24,12.85l0 0.07c-0.1,4.22 -0.24,8.44 -0.39,12.65l0 0.11 -0.01 0.1c-0.16,4.24 -0.34,8.45 -0.55,12.67l0 0.13c-0.21,4.2 -0.44,8.39 -0.7,12.58l-0.01 0.16c-0.26,4.17 -0.54,8.33 -0.85,12.48l-0.01 0.2c-0.31,4.14 -0.64,8.27 -1,12.39l-0.02 0.23c-1.08,12.47 -2.38,24.85 -3.9,37.12l-0.04 0.32c-1.01,8.13 -2.12,16.2 -3.31,24.22l-0.06 0.39c-1.2,8 -2.49,15.96 -3.87,23.86l0 0.01 -0.08 0.44c-0.65,3.73 -1.32,7.44 -2.02,11.14l-0.07 0.42 -0.09 0.48c-0.69,3.65 -1.4,7.3 -2.12,10.93l-0.11 0.53 -0.1 0.49c-14.84,10.82 -28.99,22.69 -43.31,34.23 -9.32,7.51 -17.02,7.51 -22,-3.24 -4.67,-10.06 -8.24,-21.35 -9.07,-32.33 -2.62,-34.59 -3.24,-69.31 -5.61,-103.91 -1.22,-17.91 -4.03,-35.77 -7.28,-53.44 -0.67,-3.66 -7.24,-9.47 -9.73,-8.85 -4.41,1.1 -8.74,5.81 -11.3,10.08 -2.17,3.63 -2.23,8.77 -2.46,13.28 -1.4,26.43 -2.35,52.88 -3.92,79.3 -0.62,10.5 -2.18,20.98 -3.98,31.35 -0.34,1.99 -3.79,3.43 -5.81,5.13 -1.46,-1.8 -3.37,-3.4 -4.28,-5.45 -0.97,-2.2 -0.98,-4.83 -1.43,-7.27 -6.64,-36.24 -12.97,-72.53 -20.13,-108.67 -1.9,-9.56 -5.24,-19.26 -10.07,-27.66 -2.57,-4.48 -9.8,-8.66 -14.79,-8.5 -3.12,0.09 -8.71,8.63 -8.48,13.14 0.76,15.08 3.28,30.12 5.8,45.07 5.17,30.69 10.99,61.26 15.99,91.98 0.7,4.31 -1.77,9.14 -2.77,13.73 -1.12,-0.07 -2.24,-0.14 -3.37,-0.21 -1.2,-2.43 -2.56,-4.79 -3.58,-7.29 -11,-27.13 -22.01,-54.26 -32.91,-81.43 -4.2,-10.47 -7.8,-21.2 -12.34,-31.52 -2.83,-6.39 -7.44,-11.63 -15.7,-9.05 -8.08,2.52 -9.18,9.03 -8.22,16.24 0.52,3.86 0.98,7.84 2.29,11.46 12.07,33.14 24.39,66.19 36.41,99.35 1.43,3.95 1.47,8.41 2.16,12.63 -4.6,-1.65 -10.24,-2.17 -13.58,-5.22 -6.47,-5.91 -11.77,-13.14 -17.33,-20.01 -11.11,-13.74 -21.71,-27.94 -33.37,-41.2 -2.76,-3.13 -8.9,-3.3 -13.49,-4.84 -1.53,4.91 -3.4,9.76 -4.42,14.78 -0.35,1.73 1.11,4.05 2.2,5.83 8.26,13.53 17.14,26.72 24.85,40.56 10.58,19 21.9,37.86 29.87,57.98 5.77,14.56 5.86,31.25 9.82,46.65 5.21,20.3 12.36,39.69 29.11,54.26 4.53,3.95 7.69,11.22 8.54,17.37 5.04,36.26 9.86,72.54 14.62,108.84l-120.08 0 -0.04 -1.19c-1.07,-26.39 -4.18,-52.71 -6.72,-79.03 -0.91,-9.44 -5.8,-14.62 -15.32,-18.55 -12.65,-5.23 -25.65,-10.94 -37.17,-18.41l-0.22 -1.77 -0.22 -1.78 -0.13 -1 -0.09 -0.78 -0.21 -1.78 -0.21 -1.78 -0.2 -1.79 -0.21 -1.78 -0.2 -1.79 -0.19 -1.78 -0.38 -3.58 -0.19 -1.79 -0.18 -1.79 -0.18 -1.79 -0.02 -0.14 -0.15 -1.65 -0.38 -4.02 -0.13 -1.38 -0.16 -1.79 -0.15 -1.8 -0.16 -1.81 -0.24 -2.86 -0.06 -0.74 -0.14 -1.81 -0.14 -1.8 -0.09 -1.09 -0.05 -0.72 -0.13 -1.81 -0.13 -1.81 -0.13 -1.81 -0.06 -0.8 -0.06 -1.01 -0.12 -1.82 -0.12 -1.81 -0.11 -1.82 -0.03 -0.51 -0.08 -1.31 -0.1 -1.81 -0.11 -1.82 -0.1 -1.83 -0.01 -0.22 -0.08 -1.6 -0.26 -5.4 -0.01 -0.07 -0.28 -6.7 -0.01 -0.24 -0.01 -0.37 -0.13 -3.67 -0.06 -1.83 -0.04 -1.17 -0.01 -0.66 -0.05 -1.84 -0.1 -3.67 -0.02 -0.88 -0.02 -0.96 -0.11 -5.53 0 -0.58 -0.02 -1.26 -0.04 -3.69 -0.02 -1.84 -0.01 -0.3 0 -1.55 -0.02 -5.55c0,-3.9 0.02,-7.8 0.07,-11.7l0.01 -0.7 0 -0.13 0.02 -0.84c0.05,-3.33 0.11,-6.66 0.2,-9.99l0.02 -0.83 0.02 -0.83 0.02 -0.83 0.03 -0.83c0.06,-2.49 0.15,-4.97 0.24,-7.46l0.03 -0.83 0.17 -4.14 0.03 -0.83 0.04 -0.82 0.04 -0.83 0.03 -0.82 0.04 -0.83 0.04 -0.83 0.04 -0.82 0.04 -0.83 0.04 -0.82 0.26 -4.95 0.05 -0.82 0.04 -0.83c4.95,0.27 10.95,-1.43 14.42,-4.17 6.2,-4.91 11.32,-12.42 14.47,-19.88 10.42,-24.73 7.77,-50.82 3.23,-76.05 -3.23,-17.96 -6.62,-35.89 -10.11,-53.8l0.62 -2.66 0.05 -0.19 1.86 -7.76 0.65 -2.64 0.67 -2.64 1.34 -5.26 0.69 -2.63 0.69 -2.62c0.67,-2.53 1.35,-5.07 2.05,-7.59l0.07 -0.25 0.72 -2.6 0.08 -0.3 2.13 -7.5 0.75 -2.58 0.76 -2.59 1.54 -5.15 0.78 -2.57 0.79 -2.57 2.39 -7.62 0.02 -0.06 0.82 -2.54 0.1 -0.32 2.4 -7.31 0.84 -2.53 0.86 -2.53 2.45 -7.1 0.16 -0.45 0.88 -2.51 0.06 -0.18 1.73 -4.83 0.91 -2.49 0.91 -2.49 0.26 -0.7 2.22 -5.96 0.3 -0.79 0.94 -2.47 0.35 -0.9c0.83,-2.17 1.66,-4.34 2.51,-6.49l0.97 -2.45 0.98 -2.45 2.31 -5.73 1.79 -4.32 1.9 -4.54 1.03 -2.42 1.03 -2.41 1.03 -2.4 1.94 -4.44 2.31 -5.2 2.04 -4.51 0.09 -0.18 4.41 13.36c7.92,23.91 15.74,47.91 25.21,71.2 3.2,7.89 10.58,14.7 17.45,20.2 5.89,4.71 11.83,2.3 12.57,-6.3 0.56,-6.45 0.81,-13.04 0.16,-19.46 -3.22,-31.28 -7.16,-62.49 -10.13,-93.79 -2.15,-22.71 -4.22,-45.43 -5.83,-68.18l0.03 -0.05 2.8 -4.59 0.15 -0.24 1 -1.61 1.8 -2.89 2.23 -3.55 1.02 -1.61 2.04 -3.19 1.03 -1.59 2.5 -3.84 1.64 -2.49 1.05 -1.58 0.24 -0.36 2.76 -4.12 3.54 -5.2 2.26 -3.27 4.08 -5.8 2.28 -3.2c1.36,-1.9 2.72,-3.79 4.1,-5.67l1.87 -2.55 4.33 -5.8 2.29 -3.04 4.17 -5.41 2.01 -2.59c1.56,-2 3.14,-3.99 4.72,-5.97l1.93 -2.4c1.62,-2.01 3.25,-4 4.89,-6l1.93 -2.32c1.77,-2.14 3.57,-4.27 5.37,-6.39l0.39 4.42c3.6,39.76 6.97,79.53 10.48,119.3 3.07,34.78 5.5,69.64 9.68,104.29 1.52,12.63 6.62,25.01 11.48,36.92 1.46,3.58 7.61,5.19 11.61,7.7 2.07,-3.81 5.54,-7.47 5.96,-11.46 1.95,-18.31 2.78,-36.74 4.49,-55.07 2.5,-26.72 5.13,-53.43 8.23,-80.08 4.64,-39.95 9.66,-79.86 14.71,-119.75 2.79,-22.01 4.7,-44.25 9.39,-65.85 1.6,-7.34 4.52,-12.74 8.56,-16.44zm40.21 683.36l-0.33 1.1 -1.71 5.51 -0.34 1.1 -0.34 1.09 -0.35 1.1 -0.35 1.09 -0.35 1.1 -1.41 4.37 -0.35 1.09 -1.44 4.34 -0.36 1.08 -0.36 1.09 -1.05 3.13c-0.95,2.79 -1.92,5.59 -2.89,8.36l-0.5 1.41 0 0.03 -0.39 1.07c-1.01,2.85 -2.03,5.7 -3.06,8.53l-0.26 0.72 -0.13 0.34 -0.01 0.02c-1.25,3.39 -2.51,6.77 -3.79,10.12l-0.09 0.24 -0.07 0.18 -0.04 0.11c-1.31,3.41 -2.63,6.8 -3.98,10.18l-0.05 0.14 -0.01 0.03c-1.53,-9.49 -2.96,-19.01 -4.33,-28.53 -0.51,-3.59 0.61,-9.33 3.1,-11.12 10.9,-7.83 18.65,-17.98 25.24,-29.02z"/>
  </g>
  <g>
  </g>
  <g style="clip-path:url(#id0)">
   <g>
    <ellipse class="fil2" cx="154.02" cy="465.28" rx="519.38" ry="731.78"/>
    <ellipse class="fil1" cx="945.71" cy="693.28" rx="637.98" ry="767.11"/>
    <path class="fil3" d="M588.26 55.04c55.3,116.31 87.56,256.19 87.56,406.69 0,276.57 -108.91,517.28 -269.59,641.71 -63.12,-119 -99.71,-260.33 -99.71,-411.93 0,-265.03 111.78,-498.66 281.74,-636.47z"/>
   </g>
  </g>
  <path class="fil4" d="M313.79 807.64c-3.6,-2.33 -7.06,-4.84 -10.32,-7.55 -25.37,-21.16 -49,-44.61 -72.24,-68.23 -36.53,-37.12 -78.41,-64.47 -128.49,-78.68 -17.73,-5.04 -35.4,-10.83 -52.33,-18.12 -16.65,-7.17 -20.7,-18.92 -16.26,-36.71 4.75,-19.01 16.35,-31.65 35.14,-34.69 14.34,-2.32 29.62,-3.45 43.81,-1.06 54.08,9.09 104.31,29.68 152.33,56.2 12.57,6.94 25.3,13.91 38.69,18.82 1.16,0.43 2.5,0.67 3.92,0.74 -1,17.56 -1.52,35.28 -1.52,53.14 0,39.49 2.49,78.27 7.27,116.14zm16.26 -323.18c-6.92,-35.41 -14.26,-70.75 -21.7,-106.05 -13.23,-62.84 -28.07,-125.34 -40.43,-188.35 -3.61,-18.42 -2.1,-38.11 -1.14,-57.12 0.56,-11.02 6.39,-21.06 18.34,-23.67 12.42,-2.71 22.51,2.7 29.02,13.4 5.33,8.75 10.53,17.91 13.77,27.58 19.25,57.51 37.91,115.22 56.91,172.81 -23.09,50.61 -41.58,104.67 -54.77,161.4zm98.61 -244.39c-0.61,-8.64 -1.16,-17.28 -1.62,-25.93 -2.58,-48.32 -4.88,-96.68 -5.59,-145.05 -0.19,-12.86 4.6,-26.32 9.43,-38.57 4.55,-11.55 15.03,-16.57 27.63,-16.33 11.98,0.22 19.11,7.62 22.93,17.63 4.32,11.33 8.1,23.24 9.67,35.22 3.3,25.15 5.35,50.47 7.61,75.75 -25.53,29.99 -48.99,62.52 -70.06,97.28z"/>
  <g>
  </g>
  <g style="clip-path:url(#id1)">
   <g>
    <ellipse class="fil2" cx="154.02" cy="465.28" rx="519.38" ry="731.78"/>
    <ellipse class="fil1" cx="945.71" cy="693.28" rx="637.98" ry="767.11"/>
    <path class="fil3" d="M588.26 55.04c55.3,116.31 87.56,256.19 87.56,406.69 0,276.57 -108.91,517.28 -269.59,641.71 -63.12,-119 -99.71,-260.33 -99.71,-411.93 0,-265.03 111.78,-498.66 281.74,-636.47z"/>
   </g>
  </g>
  <path class="fil4" d="M609.9 818.76c-1.53,-9.49 -2.96,-19.01 -4.33,-28.53 -0.51,-3.59 0.61,-9.33 3.1,-11.12 10.9,-7.83 18.65,-17.98 25.24,-29.02 -7.17,23.55 -15.18,46.47 -24.01,68.67zm46.29 -157.09c-14.84,10.82 -28.99,22.69 -43.31,34.23 -9.32,7.51 -17.02,7.51 -22,-3.24 -4.67,-10.06 -8.24,-21.35 -9.07,-32.33 -2.62,-34.59 -3.24,-69.31 -5.61,-103.91 -1.22,-17.91 -4.03,-35.77 -7.28,-53.44 -0.67,-3.66 -7.24,-9.47 -9.73,-8.85 -4.41,1.1 -8.74,5.81 -11.3,10.08 -2.17,3.63 -2.23,8.77 -2.46,13.28 -1.4,26.43 -2.35,52.88 -3.92,79.3 -0.62,10.5 -2.18,20.98 -3.98,31.35 -0.34,1.99 -3.79,3.43 -5.81,5.13 -1.46,-1.8 -3.37,-3.4 -4.28,-5.45 -0.97,-2.2 -0.98,-4.83 -1.43,-7.27 -6.64,-36.24 -12.97,-72.53 -20.13,-108.67 -1.9,-9.56 -5.24,-19.26 -10.07,-27.66 -2.57,-4.48 -9.8,-8.66 -14.79,-8.5 -3.12,0.09 -8.71,8.63 -8.48,13.14 0.76,15.08 3.28,30.12 5.8,45.07 5.17,30.69 10.99,61.26 15.99,91.98 0.7,4.31 -1.77,9.14 -2.77,13.73 -1.12,-0.07 -2.24,-0.14 -3.37,-0.21 -1.2,-2.43 -2.56,-4.79 -3.58,-7.29 -11,-27.13 -22.01,-54.26 -32.91,-81.43 -4.2,-10.47 -7.8,-21.2 -12.34,-31.52 -2.83,-6.39 -7.44,-11.63 -15.7,-9.05 -8.08,2.52 -9.18,9.03 -8.22,16.24 0.52,3.86 0.98,7.84 2.29,11.46 12.07,33.14 24.39,66.19 36.41,99.35 1.43,3.95 1.47,8.41 2.16,12.63 -4.6,-1.65 -10.24,-2.17 -13.58,-5.22 -6.47,-5.91 -11.77,-13.14 -17.33,-20.01 -11.11,-13.74 -21.71,-27.94 -33.37,-41.2 -2.76,-3.13 -8.9,-3.3 -13.49,-4.84 -1.53,4.91 -3.4,9.76 -4.42,14.78 -0.35,1.73 1.11,4.05 2.2,5.83 8.26,13.53 17.14,26.72 24.85,40.56 10.58,19 21.9,37.86 29.87,57.98 5.77,14.56 5.86,31.25 9.82,46.65 5.21,20.3 12.36,39.69 29.11,54.26 4.53,3.95 7.69,11.22 8.54,17.37 5.04,36.26 9.86,72.54 14.62,108.84l-120.08 0 -0.04 -1.19c-1.07,-26.39 -4.18,-52.71 -6.72,-79.03 -0.91,-9.44 -5.8,-14.62 -15.32,-18.55 -12.65,-5.23 -25.65,-10.94 -37.17,-18.41 -4.78,-37.87 -7.27,-76.65 -7.27,-116.14 0,-17.86 0.52,-35.58 1.52,-53.14 4.95,0.27 10.95,-1.43 14.42,-4.17 6.2,-4.91 11.32,-12.42 14.47,-19.88 10.42,-24.73 7.77,-50.82 3.23,-76.05 -3.23,-17.96 -6.62,-35.89 -10.11,-53.8 13.19,-56.73 31.67,-110.81 54.77,-161.42l4.41 13.36c7.92,23.91 15.74,47.91 25.21,71.2 3.2,7.89 10.58,14.7 17.45,20.2 5.89,4.71 11.83,2.3 12.57,-6.3 0.56,-6.45 0.81,-13.04 0.16,-19.46 -3.22,-31.28 -7.16,-62.49 -10.13,-93.79 -2.15,-22.71 -4.22,-45.43 -5.83,-68.18 21.07,-34.76 44.52,-67.31 70.06,-97.32l0.39 4.42c3.6,39.76 6.97,79.53 10.48,119.3 3.07,34.78 5.5,69.64 9.68,104.29 1.52,12.63 6.62,25.01 11.48,36.92 1.46,3.58 7.61,5.19 11.61,7.7 2.07,-3.81 5.54,-7.47 5.96,-11.46 1.95,-18.31 2.78,-36.74 4.49,-55.07 2.5,-26.72 5.13,-53.43 8.23,-80.08 4.64,-39.95 9.66,-79.86 14.71,-119.75 2.79,-22.01 4.7,-44.25 9.39,-65.85 1.6,-7.34 4.52,-12.74 8.56,-16.44 18.21,39.94 33.75,82.55 46.25,127.3 -1.11,16.14 -2.2,32.29 -3.12,48.44 -1.01,18.03 0.47,36.27 -1.46,54.15 -3.69,34.25 -9.38,68.27 -13.32,102.49 -0.68,5.89 3.14,12.33 4.88,18.5 6.45,-2.09 14.53,-2.42 18.98,-6.67 6.67,-6.39 12.04,-14.96 15.83,-23.56 3.22,-7.31 6.43,-14.62 9.62,-21.94 2.94,31.51 4.46,63.65 4.46,96.29 0,69.32 -6.84,136.4 -19.63,199.94z"/>
  <polygon class="fil5" points="2454.43,515.08 2454.43,350.37 2539.82,350.37 2539.82,515.08 2704.52,515.08 2704.52,600.47 2539.82,600.47 2539.82,765.17 2454.43,765.17 2454.43,600.47 2289.73,600.47 2289.73,515.08 "/>
 </g>
</svg>
